G75*
%MOIN*%
%OFA0B0*%
%FSLAX24Y24*%
%IPPOS*%
%LPD*%
%AMOC8*
5,1,8,0,0,1.08239X$1,22.5*
%
%ADD10C,0.0040*%
%ADD11R,0.0400X0.0400*%
D10*
X003473Y003620D02*
X003353Y003740D01*
X003353Y003980D01*
X003593Y003980D02*
X003593Y003740D01*
X003473Y003620D01*
X003721Y003620D02*
X003962Y003620D01*
X003721Y003860D01*
X003721Y003920D01*
X003782Y003980D01*
X003902Y003980D01*
X003962Y003920D01*
X004210Y003980D02*
X004210Y003620D01*
X004330Y003620D02*
X004090Y003620D01*
X004330Y003860D02*
X004210Y003980D01*
X004150Y004220D02*
X004270Y004220D01*
X004330Y004280D01*
X004330Y004400D02*
X004210Y004460D01*
X004150Y004460D01*
X004090Y004400D01*
X004090Y004280D01*
X004150Y004220D01*
X003962Y004340D02*
X003842Y004220D01*
X003721Y004340D01*
X003721Y004580D01*
X003962Y004580D02*
X003962Y004340D01*
X004090Y004580D02*
X004330Y004580D01*
X004330Y004400D01*
X004330Y004820D02*
X004210Y004820D01*
X004270Y004820D02*
X004270Y005180D01*
X004330Y005180D02*
X004210Y005180D01*
X004084Y005180D02*
X003844Y004820D01*
X003844Y005180D01*
X004084Y005180D02*
X004084Y004820D01*
X005753Y004580D02*
X005753Y004340D01*
X005873Y004220D01*
X005993Y004340D01*
X005993Y004580D01*
X006121Y004580D02*
X006362Y004580D01*
X006362Y004400D01*
X006242Y004460D01*
X006182Y004460D01*
X006121Y004400D01*
X006121Y004280D01*
X006182Y004220D01*
X006302Y004220D01*
X006362Y004280D01*
X006490Y004400D02*
X006730Y004400D01*
X006670Y004820D02*
X006550Y004820D01*
X006490Y004880D01*
X006490Y005120D01*
X006550Y005180D01*
X006670Y005180D01*
X006730Y005120D01*
X006730Y004880D01*
X006670Y004820D01*
X006362Y004880D02*
X006302Y004820D01*
X006182Y004820D01*
X006121Y004880D01*
X006121Y005180D01*
X005993Y005180D02*
X005753Y005180D01*
X005873Y005180D02*
X005873Y004820D01*
X006362Y004880D02*
X006362Y005180D01*
X006302Y003980D02*
X006182Y003980D01*
X006121Y003920D01*
X006121Y003680D01*
X006182Y003620D01*
X006302Y003620D01*
X006362Y003680D01*
X006302Y003800D02*
X006121Y003800D01*
X005993Y003740D02*
X005873Y003620D01*
X005753Y003740D01*
X005753Y003980D01*
X005993Y003980D02*
X005993Y003740D01*
X006302Y003800D02*
X006362Y003860D01*
X006362Y003920D01*
X006302Y003980D01*
X006490Y003800D02*
X006730Y003800D01*
X006242Y003380D02*
X006242Y003020D01*
X006362Y003020D02*
X006121Y003020D01*
X005993Y003020D02*
X005753Y003260D01*
X005753Y003320D01*
X005813Y003380D01*
X005933Y003380D01*
X005993Y003320D01*
X006242Y003380D02*
X006362Y003260D01*
X006490Y003200D02*
X006730Y003200D01*
X005993Y003020D02*
X005753Y003020D01*
X005625Y003140D02*
X005505Y003020D01*
X005385Y003140D01*
X005385Y003380D01*
X005625Y003380D02*
X005625Y003140D01*
D11*
X004750Y003800D03*
X004750Y004400D03*
X007150Y004400D03*
X007150Y003800D03*
X007150Y003200D03*
M02*
