G75*
%MOIN*%
%OFA0B0*%
%FSLAX24Y24*%
%IPPOS*%
%LPD*%
%AMOC8*
5,1,8,0,0,1.08239X$1,22.5*
%
%ADD10C,0.0000*%
D10*
X001150Y000200D02*
X009150Y000200D01*
X009210Y000202D01*
X009271Y000207D01*
X009330Y000216D01*
X009389Y000229D01*
X009448Y000245D01*
X009505Y000265D01*
X009560Y000288D01*
X009615Y000315D01*
X009667Y000344D01*
X009718Y000377D01*
X009767Y000413D01*
X009813Y000451D01*
X009857Y000493D01*
X009899Y000537D01*
X009937Y000583D01*
X009973Y000632D01*
X010006Y000683D01*
X010035Y000735D01*
X010062Y000790D01*
X010085Y000845D01*
X010105Y000902D01*
X010121Y000961D01*
X010134Y001020D01*
X010143Y001079D01*
X010148Y001140D01*
X010150Y001200D01*
X010150Y007200D01*
X010148Y007260D01*
X010143Y007321D01*
X010134Y007380D01*
X010121Y007439D01*
X010105Y007498D01*
X010085Y007555D01*
X010062Y007610D01*
X010035Y007665D01*
X010006Y007717D01*
X009973Y007768D01*
X009937Y007817D01*
X009899Y007863D01*
X009857Y007907D01*
X009813Y007949D01*
X009767Y007987D01*
X009718Y008023D01*
X009667Y008056D01*
X009615Y008085D01*
X009560Y008112D01*
X009505Y008135D01*
X009448Y008155D01*
X009389Y008171D01*
X009330Y008184D01*
X009271Y008193D01*
X009210Y008198D01*
X009150Y008200D01*
X001150Y008200D01*
X000717Y007200D02*
X000719Y007241D01*
X000725Y007282D01*
X000735Y007322D01*
X000748Y007361D01*
X000765Y007398D01*
X000786Y007434D01*
X000810Y007468D01*
X000837Y007499D01*
X000866Y007527D01*
X000899Y007553D01*
X000933Y007575D01*
X000970Y007594D01*
X001008Y007609D01*
X001048Y007621D01*
X001088Y007629D01*
X001129Y007633D01*
X001171Y007633D01*
X001212Y007629D01*
X001252Y007621D01*
X001292Y007609D01*
X001330Y007594D01*
X001366Y007575D01*
X001401Y007553D01*
X001434Y007527D01*
X001463Y007499D01*
X001490Y007468D01*
X001514Y007434D01*
X001535Y007398D01*
X001552Y007361D01*
X001565Y007322D01*
X001575Y007282D01*
X001581Y007241D01*
X001583Y007200D01*
X001581Y007159D01*
X001575Y007118D01*
X001565Y007078D01*
X001552Y007039D01*
X001535Y007002D01*
X001514Y006966D01*
X001490Y006932D01*
X001463Y006901D01*
X001434Y006873D01*
X001401Y006847D01*
X001367Y006825D01*
X001330Y006806D01*
X001292Y006791D01*
X001252Y006779D01*
X001212Y006771D01*
X001171Y006767D01*
X001129Y006767D01*
X001088Y006771D01*
X001048Y006779D01*
X001008Y006791D01*
X000970Y006806D01*
X000934Y006825D01*
X000899Y006847D01*
X000866Y006873D01*
X000837Y006901D01*
X000810Y006932D01*
X000786Y006966D01*
X000765Y007002D01*
X000748Y007039D01*
X000735Y007078D01*
X000725Y007118D01*
X000719Y007159D01*
X000717Y007200D01*
X000150Y007200D02*
X000152Y007260D01*
X000157Y007321D01*
X000166Y007380D01*
X000179Y007439D01*
X000195Y007498D01*
X000215Y007555D01*
X000238Y007610D01*
X000265Y007665D01*
X000294Y007717D01*
X000327Y007768D01*
X000363Y007817D01*
X000401Y007863D01*
X000443Y007907D01*
X000487Y007949D01*
X000533Y007987D01*
X000582Y008023D01*
X000633Y008056D01*
X000685Y008085D01*
X000740Y008112D01*
X000795Y008135D01*
X000852Y008155D01*
X000911Y008171D01*
X000970Y008184D01*
X001029Y008193D01*
X001090Y008198D01*
X001150Y008200D01*
X000150Y007200D02*
X000150Y001200D01*
X000717Y001200D02*
X000719Y001241D01*
X000725Y001282D01*
X000735Y001322D01*
X000748Y001361D01*
X000765Y001398D01*
X000786Y001434D01*
X000810Y001468D01*
X000837Y001499D01*
X000866Y001527D01*
X000899Y001553D01*
X000933Y001575D01*
X000970Y001594D01*
X001008Y001609D01*
X001048Y001621D01*
X001088Y001629D01*
X001129Y001633D01*
X001171Y001633D01*
X001212Y001629D01*
X001252Y001621D01*
X001292Y001609D01*
X001330Y001594D01*
X001366Y001575D01*
X001401Y001553D01*
X001434Y001527D01*
X001463Y001499D01*
X001490Y001468D01*
X001514Y001434D01*
X001535Y001398D01*
X001552Y001361D01*
X001565Y001322D01*
X001575Y001282D01*
X001581Y001241D01*
X001583Y001200D01*
X001581Y001159D01*
X001575Y001118D01*
X001565Y001078D01*
X001552Y001039D01*
X001535Y001002D01*
X001514Y000966D01*
X001490Y000932D01*
X001463Y000901D01*
X001434Y000873D01*
X001401Y000847D01*
X001367Y000825D01*
X001330Y000806D01*
X001292Y000791D01*
X001252Y000779D01*
X001212Y000771D01*
X001171Y000767D01*
X001129Y000767D01*
X001088Y000771D01*
X001048Y000779D01*
X001008Y000791D01*
X000970Y000806D01*
X000934Y000825D01*
X000899Y000847D01*
X000866Y000873D01*
X000837Y000901D01*
X000810Y000932D01*
X000786Y000966D01*
X000765Y001002D01*
X000748Y001039D01*
X000735Y001078D01*
X000725Y001118D01*
X000719Y001159D01*
X000717Y001200D01*
X000150Y001200D02*
X000152Y001140D01*
X000157Y001079D01*
X000166Y001020D01*
X000179Y000961D01*
X000195Y000902D01*
X000215Y000845D01*
X000238Y000790D01*
X000265Y000735D01*
X000294Y000683D01*
X000327Y000632D01*
X000363Y000583D01*
X000401Y000537D01*
X000443Y000493D01*
X000487Y000451D01*
X000533Y000413D01*
X000582Y000377D01*
X000633Y000344D01*
X000685Y000315D01*
X000740Y000288D01*
X000795Y000265D01*
X000852Y000245D01*
X000911Y000229D01*
X000970Y000216D01*
X001029Y000207D01*
X001090Y000202D01*
X001150Y000200D01*
X008617Y001200D02*
X008619Y001241D01*
X008625Y001282D01*
X008635Y001322D01*
X008648Y001361D01*
X008665Y001398D01*
X008686Y001434D01*
X008710Y001468D01*
X008737Y001499D01*
X008766Y001527D01*
X008799Y001553D01*
X008833Y001575D01*
X008870Y001594D01*
X008908Y001609D01*
X008948Y001621D01*
X008988Y001629D01*
X009029Y001633D01*
X009071Y001633D01*
X009112Y001629D01*
X009152Y001621D01*
X009192Y001609D01*
X009230Y001594D01*
X009266Y001575D01*
X009301Y001553D01*
X009334Y001527D01*
X009363Y001499D01*
X009390Y001468D01*
X009414Y001434D01*
X009435Y001398D01*
X009452Y001361D01*
X009465Y001322D01*
X009475Y001282D01*
X009481Y001241D01*
X009483Y001200D01*
X009481Y001159D01*
X009475Y001118D01*
X009465Y001078D01*
X009452Y001039D01*
X009435Y001002D01*
X009414Y000966D01*
X009390Y000932D01*
X009363Y000901D01*
X009334Y000873D01*
X009301Y000847D01*
X009267Y000825D01*
X009230Y000806D01*
X009192Y000791D01*
X009152Y000779D01*
X009112Y000771D01*
X009071Y000767D01*
X009029Y000767D01*
X008988Y000771D01*
X008948Y000779D01*
X008908Y000791D01*
X008870Y000806D01*
X008834Y000825D01*
X008799Y000847D01*
X008766Y000873D01*
X008737Y000901D01*
X008710Y000932D01*
X008686Y000966D01*
X008665Y001002D01*
X008648Y001039D01*
X008635Y001078D01*
X008625Y001118D01*
X008619Y001159D01*
X008617Y001200D01*
X008617Y007200D02*
X008619Y007241D01*
X008625Y007282D01*
X008635Y007322D01*
X008648Y007361D01*
X008665Y007398D01*
X008686Y007434D01*
X008710Y007468D01*
X008737Y007499D01*
X008766Y007527D01*
X008799Y007553D01*
X008833Y007575D01*
X008870Y007594D01*
X008908Y007609D01*
X008948Y007621D01*
X008988Y007629D01*
X009029Y007633D01*
X009071Y007633D01*
X009112Y007629D01*
X009152Y007621D01*
X009192Y007609D01*
X009230Y007594D01*
X009266Y007575D01*
X009301Y007553D01*
X009334Y007527D01*
X009363Y007499D01*
X009390Y007468D01*
X009414Y007434D01*
X009435Y007398D01*
X009452Y007361D01*
X009465Y007322D01*
X009475Y007282D01*
X009481Y007241D01*
X009483Y007200D01*
X009481Y007159D01*
X009475Y007118D01*
X009465Y007078D01*
X009452Y007039D01*
X009435Y007002D01*
X009414Y006966D01*
X009390Y006932D01*
X009363Y006901D01*
X009334Y006873D01*
X009301Y006847D01*
X009267Y006825D01*
X009230Y006806D01*
X009192Y006791D01*
X009152Y006779D01*
X009112Y006771D01*
X009071Y006767D01*
X009029Y006767D01*
X008988Y006771D01*
X008948Y006779D01*
X008908Y006791D01*
X008870Y006806D01*
X008834Y006825D01*
X008799Y006847D01*
X008766Y006873D01*
X008737Y006901D01*
X008710Y006932D01*
X008686Y006966D01*
X008665Y007002D01*
X008648Y007039D01*
X008635Y007078D01*
X008625Y007118D01*
X008619Y007159D01*
X008617Y007200D01*
M02*
