G75*
%MOIN*%
%OFA0B0*%
%FSLAX24Y24*%
%IPPOS*%
%LPD*%
%AMOC8*
5,1,8,0,0,1.08239X$1,22.5*
%
%ADD10C,0.0000*%
D10*
X001150Y000200D02*
X008950Y000200D01*
X009010Y000202D01*
X009071Y000207D01*
X009130Y000216D01*
X009189Y000229D01*
X009248Y000245D01*
X009305Y000265D01*
X009360Y000288D01*
X009415Y000315D01*
X009467Y000344D01*
X009518Y000377D01*
X009567Y000413D01*
X009613Y000451D01*
X009657Y000493D01*
X009699Y000537D01*
X009737Y000583D01*
X009773Y000632D01*
X009806Y000683D01*
X009835Y000735D01*
X009862Y000790D01*
X009885Y000845D01*
X009905Y000902D01*
X009921Y000961D01*
X009934Y001020D01*
X009943Y001079D01*
X009948Y001140D01*
X009950Y001200D01*
X009950Y007700D01*
X009948Y007760D01*
X009943Y007821D01*
X009934Y007880D01*
X009921Y007939D01*
X009905Y007998D01*
X009885Y008055D01*
X009862Y008110D01*
X009835Y008165D01*
X009806Y008217D01*
X009773Y008268D01*
X009737Y008317D01*
X009699Y008363D01*
X009657Y008407D01*
X009613Y008449D01*
X009567Y008487D01*
X009518Y008523D01*
X009467Y008556D01*
X009415Y008585D01*
X009360Y008612D01*
X009305Y008635D01*
X009248Y008655D01*
X009189Y008671D01*
X009130Y008684D01*
X009071Y008693D01*
X009010Y008698D01*
X008950Y008700D01*
X001150Y008700D01*
X000717Y007700D02*
X000719Y007741D01*
X000725Y007782D01*
X000735Y007822D01*
X000748Y007861D01*
X000765Y007898D01*
X000786Y007934D01*
X000810Y007968D01*
X000837Y007999D01*
X000866Y008027D01*
X000899Y008053D01*
X000933Y008075D01*
X000970Y008094D01*
X001008Y008109D01*
X001048Y008121D01*
X001088Y008129D01*
X001129Y008133D01*
X001171Y008133D01*
X001212Y008129D01*
X001252Y008121D01*
X001292Y008109D01*
X001330Y008094D01*
X001366Y008075D01*
X001401Y008053D01*
X001434Y008027D01*
X001463Y007999D01*
X001490Y007968D01*
X001514Y007934D01*
X001535Y007898D01*
X001552Y007861D01*
X001565Y007822D01*
X001575Y007782D01*
X001581Y007741D01*
X001583Y007700D01*
X001581Y007659D01*
X001575Y007618D01*
X001565Y007578D01*
X001552Y007539D01*
X001535Y007502D01*
X001514Y007466D01*
X001490Y007432D01*
X001463Y007401D01*
X001434Y007373D01*
X001401Y007347D01*
X001367Y007325D01*
X001330Y007306D01*
X001292Y007291D01*
X001252Y007279D01*
X001212Y007271D01*
X001171Y007267D01*
X001129Y007267D01*
X001088Y007271D01*
X001048Y007279D01*
X001008Y007291D01*
X000970Y007306D01*
X000934Y007325D01*
X000899Y007347D01*
X000866Y007373D01*
X000837Y007401D01*
X000810Y007432D01*
X000786Y007466D01*
X000765Y007502D01*
X000748Y007539D01*
X000735Y007578D01*
X000725Y007618D01*
X000719Y007659D01*
X000717Y007700D01*
X000150Y007700D02*
X000152Y007760D01*
X000157Y007821D01*
X000166Y007880D01*
X000179Y007939D01*
X000195Y007998D01*
X000215Y008055D01*
X000238Y008110D01*
X000265Y008165D01*
X000294Y008217D01*
X000327Y008268D01*
X000363Y008317D01*
X000401Y008363D01*
X000443Y008407D01*
X000487Y008449D01*
X000533Y008487D01*
X000582Y008523D01*
X000633Y008556D01*
X000685Y008585D01*
X000740Y008612D01*
X000795Y008635D01*
X000852Y008655D01*
X000911Y008671D01*
X000970Y008684D01*
X001029Y008693D01*
X001090Y008698D01*
X001150Y008700D01*
X000150Y007700D02*
X000150Y001200D01*
X000717Y001200D02*
X000719Y001241D01*
X000725Y001282D01*
X000735Y001322D01*
X000748Y001361D01*
X000765Y001398D01*
X000786Y001434D01*
X000810Y001468D01*
X000837Y001499D01*
X000866Y001527D01*
X000899Y001553D01*
X000933Y001575D01*
X000970Y001594D01*
X001008Y001609D01*
X001048Y001621D01*
X001088Y001629D01*
X001129Y001633D01*
X001171Y001633D01*
X001212Y001629D01*
X001252Y001621D01*
X001292Y001609D01*
X001330Y001594D01*
X001366Y001575D01*
X001401Y001553D01*
X001434Y001527D01*
X001463Y001499D01*
X001490Y001468D01*
X001514Y001434D01*
X001535Y001398D01*
X001552Y001361D01*
X001565Y001322D01*
X001575Y001282D01*
X001581Y001241D01*
X001583Y001200D01*
X001581Y001159D01*
X001575Y001118D01*
X001565Y001078D01*
X001552Y001039D01*
X001535Y001002D01*
X001514Y000966D01*
X001490Y000932D01*
X001463Y000901D01*
X001434Y000873D01*
X001401Y000847D01*
X001367Y000825D01*
X001330Y000806D01*
X001292Y000791D01*
X001252Y000779D01*
X001212Y000771D01*
X001171Y000767D01*
X001129Y000767D01*
X001088Y000771D01*
X001048Y000779D01*
X001008Y000791D01*
X000970Y000806D01*
X000934Y000825D01*
X000899Y000847D01*
X000866Y000873D01*
X000837Y000901D01*
X000810Y000932D01*
X000786Y000966D01*
X000765Y001002D01*
X000748Y001039D01*
X000735Y001078D01*
X000725Y001118D01*
X000719Y001159D01*
X000717Y001200D01*
X000150Y001200D02*
X000152Y001140D01*
X000157Y001079D01*
X000166Y001020D01*
X000179Y000961D01*
X000195Y000902D01*
X000215Y000845D01*
X000238Y000790D01*
X000265Y000735D01*
X000294Y000683D01*
X000327Y000632D01*
X000363Y000583D01*
X000401Y000537D01*
X000443Y000493D01*
X000487Y000451D01*
X000533Y000413D01*
X000582Y000377D01*
X000633Y000344D01*
X000685Y000315D01*
X000740Y000288D01*
X000795Y000265D01*
X000852Y000245D01*
X000911Y000229D01*
X000970Y000216D01*
X001029Y000207D01*
X001090Y000202D01*
X001150Y000200D01*
X008417Y001200D02*
X008419Y001241D01*
X008425Y001282D01*
X008435Y001322D01*
X008448Y001361D01*
X008465Y001398D01*
X008486Y001434D01*
X008510Y001468D01*
X008537Y001499D01*
X008566Y001527D01*
X008599Y001553D01*
X008633Y001575D01*
X008670Y001594D01*
X008708Y001609D01*
X008748Y001621D01*
X008788Y001629D01*
X008829Y001633D01*
X008871Y001633D01*
X008912Y001629D01*
X008952Y001621D01*
X008992Y001609D01*
X009030Y001594D01*
X009066Y001575D01*
X009101Y001553D01*
X009134Y001527D01*
X009163Y001499D01*
X009190Y001468D01*
X009214Y001434D01*
X009235Y001398D01*
X009252Y001361D01*
X009265Y001322D01*
X009275Y001282D01*
X009281Y001241D01*
X009283Y001200D01*
X009281Y001159D01*
X009275Y001118D01*
X009265Y001078D01*
X009252Y001039D01*
X009235Y001002D01*
X009214Y000966D01*
X009190Y000932D01*
X009163Y000901D01*
X009134Y000873D01*
X009101Y000847D01*
X009067Y000825D01*
X009030Y000806D01*
X008992Y000791D01*
X008952Y000779D01*
X008912Y000771D01*
X008871Y000767D01*
X008829Y000767D01*
X008788Y000771D01*
X008748Y000779D01*
X008708Y000791D01*
X008670Y000806D01*
X008634Y000825D01*
X008599Y000847D01*
X008566Y000873D01*
X008537Y000901D01*
X008510Y000932D01*
X008486Y000966D01*
X008465Y001002D01*
X008448Y001039D01*
X008435Y001078D01*
X008425Y001118D01*
X008419Y001159D01*
X008417Y001200D01*
X008417Y007700D02*
X008419Y007741D01*
X008425Y007782D01*
X008435Y007822D01*
X008448Y007861D01*
X008465Y007898D01*
X008486Y007934D01*
X008510Y007968D01*
X008537Y007999D01*
X008566Y008027D01*
X008599Y008053D01*
X008633Y008075D01*
X008670Y008094D01*
X008708Y008109D01*
X008748Y008121D01*
X008788Y008129D01*
X008829Y008133D01*
X008871Y008133D01*
X008912Y008129D01*
X008952Y008121D01*
X008992Y008109D01*
X009030Y008094D01*
X009066Y008075D01*
X009101Y008053D01*
X009134Y008027D01*
X009163Y007999D01*
X009190Y007968D01*
X009214Y007934D01*
X009235Y007898D01*
X009252Y007861D01*
X009265Y007822D01*
X009275Y007782D01*
X009281Y007741D01*
X009283Y007700D01*
X009281Y007659D01*
X009275Y007618D01*
X009265Y007578D01*
X009252Y007539D01*
X009235Y007502D01*
X009214Y007466D01*
X009190Y007432D01*
X009163Y007401D01*
X009134Y007373D01*
X009101Y007347D01*
X009067Y007325D01*
X009030Y007306D01*
X008992Y007291D01*
X008952Y007279D01*
X008912Y007271D01*
X008871Y007267D01*
X008829Y007267D01*
X008788Y007271D01*
X008748Y007279D01*
X008708Y007291D01*
X008670Y007306D01*
X008634Y007325D01*
X008599Y007347D01*
X008566Y007373D01*
X008537Y007401D01*
X008510Y007432D01*
X008486Y007466D01*
X008465Y007502D01*
X008448Y007539D01*
X008435Y007578D01*
X008425Y007618D01*
X008419Y007659D01*
X008417Y007700D01*
M02*
