G75*
%MOIN*%
%OFA0B0*%
%FSLAX24Y24*%
%IPPOS*%
%LPD*%
%AMOC8*
5,1,8,0,0,1.08239X$1,22.5*
%
%ADD10C,0.0030*%
%ADD11C,0.0040*%
%ADD12R,0.1024X0.0118*%
%ADD13C,0.0080*%
%ADD14C,0.0060*%
%ADD15C,0.0050*%
%ADD16C,0.0066*%
%ADD17C,0.0070*%
%ADD18C,0.0177*%
D10*
X002672Y000656D02*
X002624Y000734D01*
X002864Y000734D01*
X002804Y000656D01*
X002672Y000656D01*
X002804Y000656D01*
X002826Y000685D02*
X002654Y000685D01*
X002637Y000713D02*
X002848Y000713D01*
X003665Y000615D02*
X003762Y000615D01*
X003713Y000615D02*
X003713Y000905D01*
X003665Y000905D02*
X003762Y000905D01*
X003861Y000808D02*
X004007Y000808D01*
X004055Y000760D01*
X004055Y000615D01*
X003861Y000615D02*
X003861Y000808D01*
X004156Y000808D02*
X004253Y000615D01*
X004350Y000808D01*
X004451Y000760D02*
X004499Y000808D01*
X004596Y000808D01*
X004644Y000760D01*
X004644Y000712D01*
X004451Y000712D01*
X004451Y000760D02*
X004451Y000663D01*
X004499Y000615D01*
X004596Y000615D01*
X004745Y000615D02*
X004745Y000808D01*
X004745Y000712D02*
X004842Y000808D01*
X004891Y000808D01*
X004991Y000808D02*
X005088Y000808D01*
X005039Y000857D02*
X005039Y000663D01*
X005088Y000615D01*
X005187Y000615D02*
X005284Y000615D01*
X005236Y000615D02*
X005236Y000808D01*
X005187Y000808D01*
X005236Y000905D02*
X005236Y000954D01*
X005384Y000808D02*
X005529Y000808D01*
X005577Y000760D01*
X005577Y000615D01*
X005678Y000663D02*
X005727Y000615D01*
X005872Y000615D01*
X005872Y000567D02*
X005824Y000518D01*
X005775Y000518D01*
X005872Y000567D02*
X005872Y000808D01*
X005727Y000808D01*
X005678Y000760D01*
X005678Y000663D01*
X005384Y000615D02*
X005384Y000808D01*
X005382Y001215D02*
X005285Y001215D01*
X005236Y001263D01*
X005236Y001360D01*
X005285Y001408D01*
X005382Y001408D01*
X005430Y001360D01*
X005430Y001263D01*
X005382Y001215D01*
X005531Y001263D02*
X005580Y001215D01*
X005725Y001215D01*
X005725Y001408D01*
X005826Y001360D02*
X005826Y001263D01*
X005874Y001215D01*
X006019Y001215D01*
X006019Y001167D02*
X005971Y001118D01*
X005923Y001118D01*
X006019Y001167D02*
X006019Y001408D01*
X005874Y001408D01*
X005826Y001360D01*
X006120Y001360D02*
X006169Y001408D01*
X006266Y001408D01*
X006314Y001360D01*
X006314Y001215D01*
X006463Y001263D02*
X006512Y001215D01*
X006463Y001263D02*
X006463Y001457D01*
X006415Y001408D02*
X006512Y001408D01*
X006612Y001360D02*
X006660Y001312D01*
X006757Y001312D01*
X006805Y001263D01*
X006757Y001215D01*
X006612Y001215D01*
X006612Y001360D02*
X006660Y001408D01*
X006805Y001408D01*
X006906Y001263D02*
X006955Y001263D01*
X006955Y001215D01*
X006906Y001215D01*
X006906Y001263D01*
X007053Y001263D02*
X007102Y001215D01*
X007247Y001215D01*
X007348Y001263D02*
X007397Y001215D01*
X007493Y001215D01*
X007542Y001263D01*
X007542Y001360D01*
X007493Y001408D01*
X007397Y001408D01*
X007348Y001360D01*
X007348Y001263D01*
X007247Y001408D02*
X007102Y001408D01*
X007053Y001360D01*
X007053Y001263D01*
X007446Y000905D02*
X007495Y000905D01*
X007495Y000615D01*
X007543Y000615D02*
X007446Y000615D01*
X007345Y000663D02*
X007297Y000615D01*
X007152Y000615D01*
X007152Y000518D02*
X007152Y000808D01*
X007297Y000808D01*
X007345Y000760D01*
X007345Y000663D01*
X007051Y000663D02*
X007002Y000615D01*
X006857Y000615D01*
X006857Y000518D02*
X006857Y000808D01*
X007002Y000808D01*
X007051Y000760D01*
X007051Y000663D01*
X006756Y000615D02*
X006756Y000808D01*
X006756Y000615D02*
X006611Y000615D01*
X006562Y000663D01*
X006562Y000808D01*
X006461Y000857D02*
X006413Y000905D01*
X006316Y000905D01*
X006268Y000857D01*
X006268Y000808D01*
X006316Y000760D01*
X006413Y000760D01*
X006461Y000712D01*
X006461Y000663D01*
X006413Y000615D01*
X006316Y000615D01*
X006268Y000663D01*
X006120Y001215D02*
X006120Y001505D01*
X005933Y001973D02*
X005739Y001973D01*
X005642Y002070D01*
X005739Y002167D01*
X005933Y002167D01*
X005788Y002167D02*
X005788Y001973D01*
X005933Y002268D02*
X005642Y002268D01*
X005642Y002413D01*
X005691Y002461D01*
X005884Y002461D01*
X005933Y002413D01*
X005933Y002268D01*
X005884Y002562D02*
X005933Y002611D01*
X005933Y002659D01*
X005884Y002707D01*
X005642Y002707D01*
X005642Y002659D02*
X005642Y002756D01*
X005819Y003295D02*
X005915Y003295D01*
X005964Y003343D01*
X006065Y003343D02*
X006113Y003295D01*
X006210Y003295D01*
X006258Y003343D01*
X006258Y003392D01*
X006210Y003440D01*
X006162Y003440D01*
X006210Y003440D02*
X006258Y003488D01*
X006258Y003537D01*
X006210Y003585D01*
X006113Y003585D01*
X006065Y003537D01*
X005964Y003537D02*
X005915Y003585D01*
X005819Y003585D01*
X005770Y003537D01*
X005770Y003343D01*
X005819Y003295D01*
X005458Y003295D02*
X005265Y003295D01*
X005458Y003488D01*
X005458Y003537D01*
X005410Y003585D01*
X005313Y003585D01*
X005265Y003537D01*
X005164Y003537D02*
X005115Y003585D01*
X005019Y003585D01*
X004970Y003537D01*
X004970Y003343D01*
X005019Y003295D01*
X005115Y003295D01*
X005164Y003343D01*
X004795Y003414D02*
X004505Y003220D01*
X004602Y003119D02*
X004795Y003119D01*
X004795Y003220D02*
X004505Y003414D01*
X004650Y003515D02*
X004650Y003660D01*
X004698Y003708D01*
X004747Y003708D01*
X004795Y003660D01*
X004795Y003563D01*
X004747Y003515D01*
X004650Y003515D01*
X004553Y003612D01*
X004505Y003708D01*
X004553Y003810D02*
X004505Y003858D01*
X004505Y003955D01*
X004553Y004003D01*
X004602Y004003D01*
X004650Y003955D01*
X004698Y004003D01*
X004747Y004003D01*
X004795Y003955D01*
X004795Y003858D01*
X004747Y003810D01*
X004650Y003906D02*
X004650Y003955D01*
X004650Y004104D02*
X004650Y004249D01*
X004698Y004298D01*
X004747Y004298D01*
X004795Y004249D01*
X004795Y004153D01*
X004747Y004104D01*
X004650Y004104D01*
X004553Y004201D01*
X004505Y004298D01*
X004602Y003119D02*
X004505Y003022D01*
X004602Y002926D01*
X004795Y002926D01*
X004650Y002926D02*
X004650Y003119D01*
X004505Y002825D02*
X004795Y002825D01*
X004795Y002631D02*
X004505Y002631D01*
X004602Y002728D01*
X004505Y002825D01*
X004942Y001505D02*
X004942Y001215D01*
X004842Y001215D02*
X004794Y001263D01*
X004794Y001457D01*
X004842Y001408D02*
X004745Y001408D01*
X004644Y001360D02*
X004451Y001360D01*
X004351Y001408D02*
X004254Y001408D01*
X004303Y001457D02*
X004303Y001263D01*
X004351Y001215D01*
X004153Y001263D02*
X004153Y001360D01*
X004105Y001408D01*
X004008Y001408D01*
X003960Y001360D01*
X003960Y001263D01*
X004008Y001215D01*
X004105Y001215D01*
X004153Y001263D01*
X003858Y001263D02*
X003858Y001360D01*
X003810Y001408D01*
X003665Y001408D01*
X003665Y001505D02*
X003665Y001215D01*
X003810Y001215D01*
X003858Y001263D01*
X004942Y001360D02*
X004990Y001408D01*
X005087Y001408D01*
X005135Y001360D01*
X005135Y001215D01*
X005531Y001263D02*
X005531Y001408D01*
X007643Y001408D02*
X007643Y001215D01*
X007740Y001215D02*
X007740Y001360D01*
X007788Y001408D01*
X007836Y001360D01*
X007836Y001215D01*
X007740Y001360D02*
X007691Y001408D01*
X007643Y001408D01*
X007643Y000808D02*
X007643Y000663D01*
X007691Y000615D01*
X007836Y000615D01*
X007836Y000567D02*
X007788Y000518D01*
X007740Y000518D01*
X007836Y000567D02*
X007836Y000808D01*
X009253Y002231D02*
X009447Y002231D01*
X009495Y002279D01*
X009495Y002376D01*
X009447Y002425D01*
X009350Y002425D01*
X009350Y002328D01*
X009253Y002425D02*
X009205Y002376D01*
X009205Y002279D01*
X009253Y002231D01*
X009205Y002526D02*
X009495Y002719D01*
X009205Y002719D01*
X009205Y002820D02*
X009205Y002965D01*
X009253Y003014D01*
X009447Y003014D01*
X009495Y002965D01*
X009495Y002820D01*
X009205Y002820D01*
X009205Y002526D02*
X009495Y002526D01*
X007958Y003343D02*
X007910Y003295D01*
X007813Y003295D01*
X007765Y003343D01*
X007664Y003295D02*
X007567Y003392D01*
X007615Y003392D02*
X007470Y003392D01*
X007470Y003295D02*
X007470Y003585D01*
X007615Y003585D01*
X007664Y003537D01*
X007664Y003440D01*
X007615Y003392D01*
X007765Y003537D02*
X007813Y003585D01*
X007910Y003585D01*
X007958Y003537D01*
X007958Y003488D01*
X007910Y003440D01*
X007958Y003392D01*
X007958Y003343D01*
X007910Y003440D02*
X007862Y003440D01*
X007158Y003440D02*
X006965Y003440D01*
X007110Y003585D01*
X007110Y003295D01*
X006864Y003295D02*
X006767Y003392D01*
X006815Y003392D02*
X006864Y003440D01*
X006864Y003537D01*
X006815Y003585D01*
X006670Y003585D01*
X006670Y003295D01*
X006670Y003392D02*
X006815Y003392D01*
X009350Y005315D02*
X009350Y005508D01*
X009398Y005610D02*
X009205Y005610D01*
X009205Y005803D02*
X009398Y005803D01*
X009495Y005706D01*
X009398Y005610D01*
X007715Y005520D02*
X007715Y005714D01*
X007715Y005815D02*
X007715Y006008D01*
X007715Y005912D02*
X007425Y005912D01*
X007521Y005815D01*
X007425Y005520D02*
X007715Y005520D01*
X003795Y007615D02*
X003602Y007615D01*
X003795Y007808D01*
X003795Y007857D01*
X003747Y007905D01*
X003650Y007905D01*
X003602Y007857D01*
X003353Y007857D02*
X003160Y007663D01*
X003208Y007615D01*
X003305Y007615D01*
X003353Y007663D01*
X003353Y007857D01*
X003305Y007905D01*
X003208Y007905D01*
X003160Y007857D01*
X003160Y007663D01*
X003058Y007615D02*
X002962Y007712D01*
X003010Y007712D02*
X002865Y007712D01*
X002865Y007615D02*
X002865Y007905D01*
X003010Y007905D01*
X003058Y007857D01*
X003058Y007760D01*
X003010Y007712D01*
X003454Y007663D02*
X003503Y007663D01*
X003503Y007615D01*
X003454Y007615D01*
X003454Y007663D01*
X002235Y006203D02*
X002235Y006010D01*
X002187Y005908D02*
X002235Y005860D01*
X002235Y005763D01*
X002187Y005715D01*
X001993Y005715D01*
X001945Y005763D01*
X001945Y005860D01*
X001993Y005908D01*
X002042Y006010D02*
X001945Y006106D01*
X002235Y006106D01*
X001095Y005706D02*
X000998Y005803D01*
X000805Y005803D01*
X000805Y005610D02*
X000998Y005610D01*
X001095Y005706D01*
X000950Y005508D02*
X000950Y005315D01*
X000853Y005412D02*
X001047Y005412D01*
X001047Y003014D02*
X000853Y003014D01*
X000805Y002965D01*
X000805Y002820D01*
X001095Y002820D01*
X001095Y002965D01*
X001047Y003014D01*
X001095Y002719D02*
X000805Y002719D01*
X000805Y002526D02*
X001095Y002719D01*
X001095Y002526D02*
X000805Y002526D01*
X000853Y002425D02*
X000805Y002376D01*
X000805Y002279D01*
X000853Y002231D01*
X001047Y002231D01*
X001095Y002279D01*
X001095Y002376D01*
X001047Y002425D01*
X000950Y002425D01*
X000950Y002328D01*
D11*
X001570Y003920D02*
X001570Y004040D01*
X001570Y003980D02*
X001930Y003980D01*
X001930Y003920D02*
X001930Y004040D01*
X001930Y004166D02*
X001570Y004166D01*
X001930Y004406D01*
X001570Y004406D01*
X002469Y005820D02*
X002469Y007080D01*
X003531Y007080D02*
X003531Y005820D01*
X008370Y004797D02*
X008370Y004557D01*
X008370Y004429D02*
X008670Y004429D01*
X008730Y004368D01*
X008730Y004248D01*
X008670Y004188D01*
X008370Y004188D01*
X008430Y004060D02*
X008370Y004000D01*
X008370Y003880D01*
X008430Y003820D01*
X008670Y003820D01*
X008730Y003880D01*
X008730Y004000D01*
X008670Y004060D01*
X008430Y004060D01*
X008370Y004677D02*
X008730Y004677D01*
D12*
X003000Y006273D03*
D13*
X003855Y006146D02*
X003855Y006618D01*
X004445Y006618D01*
X004445Y006146D01*
X004445Y006618D02*
X004445Y006854D01*
X003855Y006854D02*
X003855Y006618D01*
D14*
X002284Y000972D02*
X002114Y000997D01*
X002114Y001191D01*
X002290Y001210D01*
X002314Y001279D01*
X002349Y001343D01*
X002243Y001490D01*
X002366Y001613D01*
X002525Y001507D01*
X002586Y001539D01*
X002652Y001560D01*
X002677Y001742D01*
X002865Y001742D01*
X002890Y001572D01*
X002959Y001548D01*
X003023Y001513D01*
X003164Y001613D01*
X003299Y001484D01*
X003193Y001337D01*
X003225Y001273D01*
X003246Y001204D01*
X003422Y001185D01*
X003422Y000997D01*
X003246Y000966D01*
X003226Y000894D01*
X003193Y000827D01*
X003293Y000692D01*
X003164Y000563D01*
X003116Y000594D01*
X003116Y001070D01*
X003114Y001131D01*
X003100Y001190D01*
X003076Y001246D01*
X003042Y001296D01*
X002999Y001339D01*
X002949Y001373D01*
X002893Y001398D01*
X002834Y001412D01*
X002834Y001418D01*
X002859Y001437D01*
X002878Y001462D01*
X002890Y001491D01*
X002894Y001522D01*
X002890Y001553D01*
X002878Y001582D01*
X002859Y001607D01*
X002834Y001626D01*
X002805Y001638D01*
X002774Y001642D01*
X002743Y001638D01*
X002714Y001626D01*
X002689Y001607D01*
X002670Y001582D01*
X002658Y001553D01*
X002654Y001522D01*
X002658Y001491D01*
X002670Y001462D01*
X002689Y001437D01*
X002714Y001418D01*
X002654Y001404D01*
X002597Y001379D01*
X002546Y001344D01*
X002502Y001300D01*
X002467Y001249D01*
X002442Y001192D01*
X002428Y001132D01*
X002426Y001070D01*
X002426Y000606D01*
X002372Y000563D01*
X002237Y000698D01*
X002343Y000833D01*
X002307Y000900D01*
X002284Y000972D01*
X002287Y000961D02*
X002426Y000961D01*
X002426Y001019D02*
X002114Y001019D01*
X002114Y001078D02*
X002426Y001078D01*
X002429Y001136D02*
X002114Y001136D01*
X002143Y001195D02*
X002443Y001195D01*
X002470Y001253D02*
X002305Y001253D01*
X002331Y001312D02*
X002514Y001312D01*
X002584Y001370D02*
X002329Y001370D01*
X002287Y001429D02*
X002700Y001429D01*
X002660Y001487D02*
X002245Y001487D01*
X002299Y001546D02*
X002467Y001546D01*
X002380Y001604D02*
X002357Y001604D01*
X002606Y001546D02*
X002657Y001546D01*
X002658Y001604D02*
X002687Y001604D01*
X002666Y001663D02*
X002877Y001663D01*
X002868Y001721D02*
X002674Y001721D01*
X002861Y001604D02*
X002885Y001604D01*
X002891Y001546D02*
X002964Y001546D01*
X002888Y001487D02*
X003296Y001487D01*
X003259Y001429D02*
X002848Y001429D01*
X002954Y001370D02*
X003217Y001370D01*
X003206Y001312D02*
X003026Y001312D01*
X003071Y001253D02*
X003231Y001253D01*
X003336Y001195D02*
X003098Y001195D01*
X003113Y001136D02*
X003422Y001136D01*
X003422Y001078D02*
X003116Y001078D01*
X003116Y001019D02*
X003422Y001019D01*
X003245Y000961D02*
X003116Y000961D01*
X003116Y000902D02*
X003228Y000902D01*
X003201Y000844D02*
X003116Y000844D01*
X003116Y000785D02*
X003224Y000785D01*
X003268Y000727D02*
X003116Y000727D01*
X003116Y000668D02*
X003269Y000668D01*
X003210Y000610D02*
X003116Y000610D01*
X002426Y000610D02*
X002326Y000610D01*
X002267Y000668D02*
X002426Y000668D01*
X002426Y000727D02*
X002259Y000727D01*
X002305Y000785D02*
X002426Y000785D01*
X002426Y000844D02*
X002337Y000844D01*
X002307Y000902D02*
X002426Y000902D01*
X003069Y001546D02*
X003234Y001546D01*
X003173Y001604D02*
X003151Y001604D01*
X001450Y003450D02*
X001200Y003200D01*
X000700Y003200D01*
X000450Y003450D01*
X000450Y003950D01*
X000700Y004200D01*
X001200Y004200D01*
X001450Y003950D01*
X001450Y003450D01*
X001200Y004200D02*
X000700Y004200D01*
X000450Y004450D01*
X000450Y004950D01*
X000700Y005200D01*
X001200Y005200D01*
X001450Y004950D01*
X001450Y004450D01*
X001200Y004200D01*
X008850Y003950D02*
X008850Y003450D01*
X009100Y003200D01*
X009600Y003200D01*
X009850Y003450D01*
X009850Y003950D01*
X009600Y004200D01*
X009100Y004200D01*
X008850Y003950D01*
X009100Y004200D02*
X008850Y004450D01*
X008850Y004950D01*
X009100Y005200D01*
X009600Y005200D01*
X009850Y004950D01*
X009850Y004450D01*
X009600Y004200D01*
X009100Y004200D01*
D15*
X007326Y002991D02*
X006584Y002991D01*
X006459Y002866D01*
X006459Y002833D01*
X006459Y001967D02*
X006459Y001934D01*
X006584Y001809D01*
X007326Y001809D01*
X007641Y002321D02*
X007641Y002479D01*
X006837Y005319D02*
X005263Y005319D01*
X005066Y007602D02*
X005066Y007681D01*
X007034Y007681D01*
X007034Y007602D01*
D16*
X002769Y000980D02*
X002777Y000999D01*
X002790Y001016D01*
X002804Y001031D01*
X002822Y001042D01*
X002841Y001051D01*
X002861Y001056D01*
X002882Y001057D01*
X002903Y001054D01*
X002923Y001048D01*
X002941Y001038D01*
X002958Y001025D01*
X002972Y001010D01*
X002982Y000992D01*
X002990Y000972D01*
X002994Y000951D01*
X002994Y000931D01*
X002990Y000910D01*
X002982Y000890D01*
X002972Y000872D01*
X002958Y000857D01*
X002941Y000844D01*
X002923Y000834D01*
X002903Y000828D01*
X002882Y000825D01*
X002861Y000826D01*
X002841Y000831D01*
X002822Y000840D01*
X002804Y000851D01*
X002790Y000866D01*
X002777Y000883D01*
X002769Y000902D01*
X002765Y000928D02*
X002767Y000946D01*
X002773Y000963D01*
X002782Y000979D01*
X002795Y000992D01*
X002810Y001002D01*
X002827Y001009D01*
X002844Y001012D01*
X002863Y001011D01*
X002880Y001006D01*
X002896Y000998D01*
X002910Y000986D01*
X002921Y000971D01*
X002929Y000955D01*
X002933Y000937D01*
X002933Y000919D01*
X002929Y000901D01*
X002921Y000885D01*
X002910Y000870D01*
X002896Y000858D01*
X002880Y000850D01*
X002863Y000845D01*
X002844Y000844D01*
X002827Y000847D01*
X002810Y000854D01*
X002795Y000864D01*
X002782Y000877D01*
X002773Y000893D01*
X002767Y000910D01*
X002765Y000928D01*
X002591Y000928D02*
X002593Y000946D01*
X002599Y000963D01*
X002608Y000979D01*
X002621Y000992D01*
X002636Y001002D01*
X002653Y001009D01*
X002670Y001012D01*
X002689Y001011D01*
X002706Y001006D01*
X002722Y000998D01*
X002736Y000986D01*
X002747Y000971D01*
X002755Y000955D01*
X002759Y000937D01*
X002759Y000919D01*
X002755Y000901D01*
X002747Y000885D01*
X002736Y000870D01*
X002722Y000858D01*
X002706Y000850D01*
X002689Y000845D01*
X002670Y000844D01*
X002653Y000847D01*
X002636Y000854D01*
X002621Y000864D01*
X002608Y000877D01*
X002599Y000893D01*
X002593Y000910D01*
X002591Y000928D01*
X002761Y000902D02*
X002753Y000883D01*
X002740Y000866D01*
X002726Y000851D01*
X002708Y000840D01*
X002689Y000831D01*
X002669Y000826D01*
X002648Y000825D01*
X002627Y000828D01*
X002607Y000834D01*
X002589Y000844D01*
X002572Y000857D01*
X002558Y000872D01*
X002548Y000890D01*
X002540Y000910D01*
X002536Y000931D01*
X002536Y000951D01*
X002540Y000972D01*
X002548Y000992D01*
X002558Y001010D01*
X002572Y001025D01*
X002589Y001038D01*
X002607Y001048D01*
X002627Y001054D01*
X002648Y001057D01*
X002669Y001056D01*
X002689Y001051D01*
X002708Y001042D01*
X002726Y001031D01*
X002740Y001016D01*
X002753Y000999D01*
X002761Y000980D01*
D17*
X002505Y002752D02*
X002505Y004248D01*
X004395Y004248D02*
X004395Y002752D01*
D18*
X002700Y003125D03*
M02*
