G75*
%MOIN*%
%OFA0B0*%
%FSLAX24Y24*%
%IPPOS*%
%LPD*%
%AMOC8*
5,1,8,0,0,1.08239X$1,22.5*
%
%ADD10R,0.0945X0.0630*%
%ADD11R,0.0394X0.0433*%
%ADD12R,0.0354X0.0354*%
%ADD13OC8,0.0600*%
%ADD14R,0.0748X0.2008*%
%ADD15R,0.0236X0.0866*%
%ADD16R,0.0472X0.0472*%
%ADD17R,0.0591X0.0630*%
%ADD18C,0.0120*%
%ADD19C,0.0100*%
%ADD20C,0.0230*%
D10*
X003000Y006359D03*
X003000Y007541D03*
D11*
X005250Y005135D03*
X005250Y004465D03*
X006050Y004465D03*
X006050Y005135D03*
X006850Y005135D03*
X006850Y004465D03*
X007650Y004465D03*
X007650Y005135D03*
D12*
X004150Y006547D03*
X004150Y007453D03*
D13*
X000950Y005200D03*
X000950Y004200D03*
X009150Y004200D03*
X009150Y005200D03*
D14*
X006877Y007000D03*
X005223Y007000D03*
D15*
X004200Y004824D03*
X003700Y004824D03*
X003200Y004824D03*
X002700Y004824D03*
X002700Y002776D03*
X003200Y002776D03*
X003700Y002776D03*
X004200Y002776D03*
D16*
X007680Y002406D03*
X007680Y003194D03*
D17*
X006400Y002800D03*
D18*
X006850Y003250D01*
X006850Y004465D01*
X006450Y004550D02*
X006450Y005000D01*
X006550Y005100D01*
X006815Y005100D01*
X006850Y005135D01*
X007135Y005750D02*
X006250Y005750D01*
X005950Y006050D01*
X005150Y006350D02*
X005150Y006927D01*
X005223Y007000D01*
X005070Y007453D01*
X004150Y007453D01*
X003407Y007291D02*
X004150Y006547D01*
X004150Y006250D01*
X004350Y006050D01*
X004200Y005400D02*
X005150Y006350D01*
X004200Y005400D02*
X004200Y004824D01*
X003700Y004824D02*
X003700Y004250D01*
X003850Y004100D01*
X004885Y004100D01*
X005250Y004465D01*
X005600Y003800D02*
X003650Y003800D01*
X003200Y004250D01*
X003200Y004824D01*
X002700Y004824D02*
X002700Y004250D01*
X003400Y003550D01*
X004450Y003550D01*
X005850Y002150D01*
X007424Y002150D01*
X007680Y002406D01*
X007956Y002406D01*
X008300Y002750D01*
X008300Y003915D01*
X007650Y004465D01*
X007650Y005135D02*
X007135Y005750D01*
X007685Y005200D02*
X007650Y005135D01*
X007685Y005200D02*
X009150Y005200D01*
X006450Y004550D02*
X006365Y004465D01*
X006050Y004465D01*
X006050Y004250D01*
X005600Y003800D01*
X003700Y004824D02*
X003700Y005350D01*
X003550Y005500D01*
X002250Y005500D01*
X001950Y005200D01*
X000950Y005200D01*
X003000Y007541D02*
X003407Y007291D01*
D19*
X000959Y000594D02*
X000640Y000594D01*
X000584Y000634D02*
X000437Y000837D01*
X000360Y001075D01*
X000350Y001200D01*
X000350Y007700D01*
X000360Y007825D01*
X000437Y008063D01*
X000584Y008266D01*
X000787Y008413D01*
X001025Y008490D01*
X001150Y008500D01*
X008950Y008500D01*
X009075Y008490D01*
X009313Y008413D01*
X009516Y008266D01*
X009663Y008063D01*
X009740Y007825D01*
X009750Y007700D01*
X009750Y001200D01*
X009740Y001075D01*
X009663Y000837D01*
X009516Y000634D01*
X009313Y000487D01*
X009075Y000410D01*
X008950Y000400D01*
X001150Y000400D01*
X001025Y000410D01*
X000787Y000487D01*
X000584Y000634D01*
X000542Y000693D02*
X000762Y000693D01*
X000791Y000663D02*
X001024Y000567D01*
X001276Y000567D01*
X001509Y000663D01*
X001687Y000841D01*
X001783Y001074D01*
X001783Y001326D01*
X001687Y001559D01*
X001509Y001737D01*
X001276Y001833D01*
X001024Y001833D01*
X000791Y001737D01*
X000613Y001559D01*
X000517Y001326D01*
X000517Y001074D01*
X000613Y000841D01*
X000791Y000663D01*
X000664Y000791D02*
X000470Y000791D01*
X000420Y000890D02*
X000593Y000890D01*
X000553Y000988D02*
X000388Y000988D01*
X000359Y001087D02*
X000517Y001087D01*
X000517Y001185D02*
X000351Y001185D01*
X000350Y001284D02*
X000517Y001284D01*
X000540Y001382D02*
X000350Y001382D01*
X000350Y001481D02*
X000581Y001481D01*
X000634Y001579D02*
X000350Y001579D01*
X000350Y001678D02*
X000732Y001678D01*
X000886Y001776D02*
X000350Y001776D01*
X000350Y001875D02*
X009750Y001875D01*
X009750Y001973D02*
X000350Y001973D01*
X000350Y002072D02*
X005688Y002072D01*
X005680Y002080D02*
X005780Y001980D01*
X007494Y001980D01*
X007574Y002060D01*
X007962Y002060D01*
X008026Y002125D01*
X008026Y002236D01*
X008027Y002236D01*
X008370Y002580D01*
X008470Y002680D01*
X008470Y003853D01*
X008475Y003859D01*
X008470Y003922D01*
X008470Y003986D01*
X008464Y003992D01*
X008464Y004000D01*
X008415Y004041D01*
X008370Y004085D01*
X008362Y004085D01*
X007957Y004428D01*
X007957Y004727D01*
X007892Y004792D01*
X007408Y004792D01*
X007343Y004727D01*
X007343Y004203D01*
X007408Y004139D01*
X007773Y004139D01*
X008130Y003837D01*
X008130Y002820D01*
X008012Y002702D01*
X007962Y002753D01*
X007398Y002753D01*
X007334Y002688D01*
X007334Y002320D01*
X005920Y002320D01*
X004610Y003630D01*
X005670Y003630D01*
X005770Y003730D01*
X006179Y004139D01*
X006292Y004139D01*
X006357Y004203D01*
X006357Y004295D01*
X006436Y004295D01*
X006520Y004380D01*
X006543Y004403D01*
X006543Y004203D01*
X006608Y004139D01*
X006680Y004139D01*
X006680Y003320D01*
X006585Y003225D01*
X006060Y003225D01*
X005995Y003161D01*
X005995Y002439D01*
X006060Y002375D01*
X006741Y002375D01*
X006806Y002439D01*
X006806Y002965D01*
X007020Y003179D01*
X007020Y004139D01*
X007092Y004139D01*
X007157Y004203D01*
X007157Y004727D01*
X007092Y004792D01*
X006620Y004792D01*
X006620Y004808D01*
X007092Y004808D01*
X007157Y004873D01*
X007157Y005397D01*
X007092Y005461D01*
X006608Y005461D01*
X006543Y005397D01*
X006543Y005270D01*
X006480Y005270D01*
X006397Y005187D01*
X006397Y005371D01*
X006387Y005409D01*
X006367Y005443D01*
X006339Y005471D01*
X006305Y005491D01*
X006267Y005501D01*
X006098Y005501D01*
X006098Y005183D01*
X006002Y005183D01*
X006002Y005501D01*
X005833Y005501D01*
X005795Y005491D01*
X005761Y005471D01*
X005733Y005443D01*
X005713Y005409D01*
X005703Y005371D01*
X005703Y005183D01*
X006002Y005183D01*
X006002Y005086D01*
X005703Y005086D01*
X005703Y004898D01*
X005713Y004860D01*
X005733Y004826D01*
X005761Y004798D01*
X005794Y004779D01*
X005743Y004727D01*
X005743Y004203D01*
X005753Y004193D01*
X005530Y003970D01*
X004995Y003970D01*
X005164Y004139D01*
X005492Y004139D01*
X005557Y004203D01*
X005557Y004727D01*
X005506Y004779D01*
X005539Y004798D01*
X005567Y004826D01*
X005587Y004860D01*
X005597Y004898D01*
X005597Y005086D01*
X005298Y005086D01*
X005298Y005183D01*
X005202Y005183D01*
X005202Y005501D01*
X005033Y005501D01*
X004995Y005491D01*
X004961Y005471D01*
X004933Y005443D01*
X004913Y005409D01*
X004903Y005371D01*
X004903Y005183D01*
X005202Y005183D01*
X005202Y005086D01*
X004903Y005086D01*
X004903Y004898D01*
X004913Y004860D01*
X004933Y004826D01*
X004961Y004798D01*
X004994Y004779D01*
X004943Y004727D01*
X004943Y004399D01*
X004814Y004270D01*
X003920Y004270D01*
X003887Y004304D01*
X003928Y004345D01*
X003928Y005302D01*
X003870Y005360D01*
X003870Y005420D01*
X003620Y005670D01*
X002180Y005670D01*
X002080Y005570D01*
X001880Y005370D01*
X001360Y005370D01*
X001120Y005610D01*
X000780Y005610D01*
X000540Y005370D01*
X000540Y005030D01*
X000780Y004790D01*
X001120Y004790D01*
X001360Y005030D01*
X002020Y005030D01*
X002320Y005330D01*
X002500Y005330D01*
X002472Y005302D01*
X002472Y004345D01*
X002530Y004287D01*
X002530Y004180D01*
X003230Y003480D01*
X003330Y003380D01*
X004380Y003380D01*
X005680Y002080D01*
X005590Y002170D02*
X000350Y002170D01*
X000350Y002269D02*
X002452Y002269D01*
X002442Y002285D02*
X002462Y002251D01*
X002490Y002223D01*
X002524Y002204D01*
X002562Y002193D01*
X002691Y002193D01*
X002691Y002767D01*
X002709Y002767D01*
X002709Y002193D01*
X002838Y002193D01*
X002876Y002204D01*
X002910Y002223D01*
X002938Y002251D01*
X002958Y002285D01*
X002968Y002324D01*
X002968Y002767D01*
X002709Y002767D01*
X002709Y002785D01*
X002968Y002785D01*
X002968Y003229D01*
X002958Y003267D01*
X002938Y003302D01*
X002910Y003329D01*
X002876Y003349D01*
X002838Y003359D01*
X002709Y003359D01*
X002709Y002785D01*
X002691Y002785D01*
X002691Y002767D01*
X002432Y002767D01*
X002432Y002324D01*
X002442Y002285D01*
X002432Y002367D02*
X000350Y002367D01*
X000350Y002466D02*
X002432Y002466D01*
X002432Y002564D02*
X000350Y002564D01*
X000350Y002663D02*
X002432Y002663D01*
X002432Y002761D02*
X000350Y002761D01*
X000350Y002860D02*
X002432Y002860D01*
X002432Y002785D02*
X002691Y002785D01*
X002691Y003359D01*
X002562Y003359D01*
X002524Y003349D01*
X002490Y003329D01*
X002462Y003302D01*
X002442Y003267D01*
X002432Y003229D01*
X002432Y002785D01*
X002432Y002958D02*
X000350Y002958D01*
X000350Y003057D02*
X002432Y003057D01*
X002432Y003155D02*
X000350Y003155D01*
X000350Y003254D02*
X002438Y003254D01*
X002534Y003352D02*
X000350Y003352D01*
X000350Y003451D02*
X003259Y003451D01*
X003364Y003319D02*
X003036Y003319D01*
X002972Y003255D01*
X002972Y002298D01*
X003036Y002233D01*
X003364Y002233D01*
X003428Y002298D01*
X003428Y003255D01*
X003364Y003319D01*
X003428Y003254D02*
X003438Y003254D01*
X003442Y003267D02*
X003432Y003229D01*
X003432Y002785D01*
X003691Y002785D01*
X003691Y002767D01*
X003709Y002767D01*
X003709Y002193D01*
X003838Y002193D01*
X003876Y002204D01*
X003910Y002223D01*
X003938Y002251D01*
X003950Y002272D01*
X003962Y002251D01*
X003990Y002223D01*
X004024Y002204D01*
X004062Y002193D01*
X004191Y002193D01*
X004191Y002767D01*
X004209Y002767D01*
X004209Y002193D01*
X004338Y002193D01*
X004376Y002204D01*
X004410Y002223D01*
X004438Y002251D01*
X004458Y002285D01*
X004468Y002324D01*
X004468Y002767D01*
X004209Y002767D01*
X004209Y002785D01*
X004468Y002785D01*
X004468Y003229D01*
X004458Y003267D01*
X004438Y003302D01*
X004410Y003329D01*
X004376Y003349D01*
X004338Y003359D01*
X004209Y003359D01*
X004209Y002785D01*
X004191Y002785D01*
X004191Y002767D01*
X003932Y002767D01*
X003709Y002767D01*
X003709Y002785D01*
X004191Y002785D01*
X004191Y003359D01*
X004062Y003359D01*
X004024Y003349D01*
X003990Y003329D01*
X003962Y003302D01*
X003950Y003281D01*
X003938Y003302D01*
X003910Y003329D01*
X003876Y003349D01*
X003838Y003359D01*
X003709Y003359D01*
X003709Y002785D01*
X003691Y002785D01*
X003691Y003359D01*
X003562Y003359D01*
X003524Y003349D01*
X003490Y003329D01*
X003462Y003302D01*
X003442Y003267D01*
X003428Y003155D02*
X003432Y003155D01*
X003428Y003057D02*
X003432Y003057D01*
X003428Y002958D02*
X003432Y002958D01*
X003428Y002860D02*
X003432Y002860D01*
X003432Y002767D02*
X003432Y002324D01*
X003442Y002285D01*
X003462Y002251D01*
X003490Y002223D01*
X003524Y002204D01*
X003562Y002193D01*
X003691Y002193D01*
X003691Y002767D01*
X003432Y002767D01*
X003432Y002761D02*
X003428Y002761D01*
X003428Y002663D02*
X003432Y002663D01*
X003428Y002564D02*
X003432Y002564D01*
X003428Y002466D02*
X003432Y002466D01*
X003428Y002367D02*
X003432Y002367D01*
X003452Y002269D02*
X003399Y002269D01*
X003691Y002269D02*
X003709Y002269D01*
X003709Y002367D02*
X003691Y002367D01*
X003691Y002466D02*
X003709Y002466D01*
X003709Y002564D02*
X003691Y002564D01*
X003691Y002663D02*
X003709Y002663D01*
X003709Y002761D02*
X003691Y002761D01*
X003691Y002860D02*
X003709Y002860D01*
X003709Y002958D02*
X003691Y002958D01*
X003691Y003057D02*
X003709Y003057D01*
X003709Y003155D02*
X003691Y003155D01*
X003691Y003254D02*
X003709Y003254D01*
X003709Y003352D02*
X003691Y003352D01*
X003534Y003352D02*
X002866Y003352D01*
X002962Y003254D02*
X002972Y003254D01*
X002968Y003155D02*
X002972Y003155D01*
X002968Y003057D02*
X002972Y003057D01*
X002968Y002958D02*
X002972Y002958D01*
X002968Y002860D02*
X002972Y002860D01*
X002968Y002761D02*
X002972Y002761D01*
X002968Y002663D02*
X002972Y002663D01*
X002968Y002564D02*
X002972Y002564D01*
X002968Y002466D02*
X002972Y002466D01*
X002968Y002367D02*
X002972Y002367D01*
X002948Y002269D02*
X003001Y002269D01*
X002709Y002269D02*
X002691Y002269D01*
X002691Y002367D02*
X002709Y002367D01*
X002709Y002466D02*
X002691Y002466D01*
X002691Y002564D02*
X002709Y002564D01*
X002709Y002663D02*
X002691Y002663D01*
X002691Y002761D02*
X002709Y002761D01*
X002709Y002860D02*
X002691Y002860D01*
X002691Y002958D02*
X002709Y002958D01*
X002709Y003057D02*
X002691Y003057D01*
X002691Y003155D02*
X002709Y003155D01*
X002709Y003254D02*
X002691Y003254D01*
X002691Y003352D02*
X002709Y003352D01*
X003062Y003648D02*
X000350Y003648D01*
X000350Y003746D02*
X002964Y003746D01*
X002865Y003845D02*
X001231Y003845D01*
X001136Y003750D02*
X001400Y004014D01*
X001400Y004150D01*
X001000Y004150D01*
X001000Y004250D01*
X000900Y004250D01*
X000900Y004650D01*
X000764Y004650D01*
X000500Y004386D01*
X000500Y004250D01*
X000900Y004250D01*
X000900Y004150D01*
X000500Y004150D01*
X000500Y004014D01*
X000764Y003750D01*
X000900Y003750D01*
X000900Y004150D01*
X001000Y004150D01*
X001000Y003750D01*
X001136Y003750D01*
X001000Y003845D02*
X000900Y003845D01*
X000900Y003943D02*
X001000Y003943D01*
X001000Y004042D02*
X000900Y004042D01*
X000900Y004140D02*
X001000Y004140D01*
X001000Y004239D02*
X002530Y004239D01*
X002570Y004140D02*
X001400Y004140D01*
X001400Y004042D02*
X002668Y004042D01*
X002767Y003943D02*
X001329Y003943D01*
X001400Y004250D02*
X001000Y004250D01*
X001000Y004650D01*
X001136Y004650D01*
X001400Y004386D01*
X001400Y004250D01*
X001400Y004337D02*
X002480Y004337D01*
X002472Y004436D02*
X001351Y004436D01*
X001252Y004534D02*
X002472Y004534D01*
X002472Y004633D02*
X001154Y004633D01*
X001000Y004633D02*
X000900Y004633D01*
X000900Y004534D02*
X001000Y004534D01*
X001000Y004436D02*
X000900Y004436D01*
X000900Y004337D02*
X001000Y004337D01*
X000900Y004239D02*
X000350Y004239D01*
X000350Y004140D02*
X000500Y004140D01*
X000500Y004042D02*
X000350Y004042D01*
X000350Y003943D02*
X000571Y003943D01*
X000669Y003845D02*
X000350Y003845D01*
X000350Y003549D02*
X003161Y003549D01*
X003866Y003352D02*
X004034Y003352D01*
X004191Y003352D02*
X004209Y003352D01*
X004209Y003254D02*
X004191Y003254D01*
X004191Y003155D02*
X004209Y003155D01*
X004209Y003057D02*
X004191Y003057D01*
X004191Y002958D02*
X004209Y002958D01*
X004209Y002860D02*
X004191Y002860D01*
X004191Y002761D02*
X004209Y002761D01*
X004209Y002663D02*
X004191Y002663D01*
X004191Y002564D02*
X004209Y002564D01*
X004209Y002466D02*
X004191Y002466D01*
X004191Y002367D02*
X004209Y002367D01*
X004209Y002269D02*
X004191Y002269D01*
X003952Y002269D02*
X003948Y002269D01*
X004448Y002269D02*
X005491Y002269D01*
X005393Y002367D02*
X004468Y002367D01*
X004468Y002466D02*
X005294Y002466D01*
X005196Y002564D02*
X004468Y002564D01*
X004468Y002663D02*
X005097Y002663D01*
X004999Y002761D02*
X004468Y002761D01*
X004468Y002860D02*
X004900Y002860D01*
X004802Y002958D02*
X004468Y002958D01*
X004468Y003057D02*
X004703Y003057D01*
X004605Y003155D02*
X004468Y003155D01*
X004462Y003254D02*
X004506Y003254D01*
X004408Y003352D02*
X004366Y003352D01*
X004691Y003549D02*
X006680Y003549D01*
X006680Y003648D02*
X005688Y003648D01*
X005786Y003746D02*
X006680Y003746D01*
X006680Y003845D02*
X005885Y003845D01*
X005983Y003943D02*
X006680Y003943D01*
X006680Y004042D02*
X006082Y004042D01*
X006294Y004140D02*
X006606Y004140D01*
X006543Y004239D02*
X006357Y004239D01*
X006477Y004337D02*
X006543Y004337D01*
X007020Y004042D02*
X007888Y004042D01*
X008004Y003943D02*
X007020Y003943D01*
X007020Y003845D02*
X008121Y003845D01*
X008130Y003746D02*
X007020Y003746D01*
X007020Y003648D02*
X008130Y003648D01*
X008130Y003549D02*
X007020Y003549D01*
X007020Y003451D02*
X007334Y003451D01*
X007334Y003475D02*
X007334Y002912D01*
X007398Y002847D01*
X007962Y002847D01*
X008026Y002912D01*
X008026Y003475D01*
X007962Y003540D01*
X007398Y003540D01*
X007334Y003475D01*
X007334Y003352D02*
X007020Y003352D01*
X007020Y003254D02*
X007334Y003254D01*
X007334Y003155D02*
X006996Y003155D01*
X006897Y003057D02*
X007334Y003057D01*
X007334Y002958D02*
X006806Y002958D01*
X006806Y002860D02*
X007386Y002860D01*
X007334Y002663D02*
X006806Y002663D01*
X006806Y002761D02*
X008071Y002761D01*
X008130Y002860D02*
X007974Y002860D01*
X008026Y002958D02*
X008130Y002958D01*
X008130Y003057D02*
X008026Y003057D01*
X008026Y003155D02*
X008130Y003155D01*
X008130Y003254D02*
X008026Y003254D01*
X008026Y003352D02*
X008130Y003352D01*
X008130Y003451D02*
X008026Y003451D01*
X008470Y003451D02*
X009750Y003451D01*
X009750Y003352D02*
X008470Y003352D01*
X008470Y003254D02*
X009750Y003254D01*
X009750Y003155D02*
X008470Y003155D01*
X008470Y003057D02*
X009750Y003057D01*
X009750Y002958D02*
X008470Y002958D01*
X008470Y002860D02*
X009750Y002860D01*
X009750Y002761D02*
X008470Y002761D01*
X008453Y002663D02*
X009750Y002663D01*
X009750Y002564D02*
X008354Y002564D01*
X008256Y002466D02*
X009750Y002466D01*
X009750Y002367D02*
X008157Y002367D01*
X008059Y002269D02*
X009750Y002269D01*
X009750Y002170D02*
X008026Y002170D01*
X007973Y002072D02*
X009750Y002072D01*
X009750Y001776D02*
X009114Y001776D01*
X009209Y001737D02*
X008976Y001833D01*
X008724Y001833D01*
X008491Y001737D01*
X008313Y001559D01*
X008217Y001326D01*
X008217Y001074D01*
X008313Y000841D01*
X008491Y000663D01*
X008724Y000567D01*
X008976Y000567D01*
X009209Y000663D01*
X009387Y000841D01*
X009483Y001074D01*
X009483Y001326D01*
X009387Y001559D01*
X009209Y001737D01*
X009268Y001678D02*
X009750Y001678D01*
X009750Y001579D02*
X009366Y001579D01*
X009419Y001481D02*
X009750Y001481D01*
X009750Y001382D02*
X009460Y001382D01*
X009483Y001284D02*
X009750Y001284D01*
X009749Y001185D02*
X009483Y001185D01*
X009483Y001087D02*
X009741Y001087D01*
X009712Y000988D02*
X009447Y000988D01*
X009407Y000890D02*
X009680Y000890D01*
X009630Y000791D02*
X009336Y000791D01*
X009238Y000693D02*
X009558Y000693D01*
X009460Y000594D02*
X009041Y000594D01*
X009325Y000496D02*
X000775Y000496D01*
X001341Y000594D02*
X008659Y000594D01*
X008462Y000693D02*
X001538Y000693D01*
X001636Y000791D02*
X008364Y000791D01*
X008293Y000890D02*
X001707Y000890D01*
X001747Y000988D02*
X008253Y000988D01*
X008217Y001087D02*
X001783Y001087D01*
X001783Y001185D02*
X008217Y001185D01*
X008217Y001284D02*
X001783Y001284D01*
X001760Y001382D02*
X008240Y001382D01*
X008281Y001481D02*
X001719Y001481D01*
X001666Y001579D02*
X008334Y001579D01*
X008432Y001678D02*
X001568Y001678D01*
X001414Y001776D02*
X008586Y001776D01*
X007334Y002367D02*
X005873Y002367D01*
X005775Y002466D02*
X005995Y002466D01*
X005995Y002564D02*
X005676Y002564D01*
X005578Y002663D02*
X005995Y002663D01*
X005995Y002761D02*
X005479Y002761D01*
X005381Y002860D02*
X005995Y002860D01*
X005995Y002958D02*
X005282Y002958D01*
X005184Y003057D02*
X005995Y003057D01*
X005995Y003155D02*
X005085Y003155D01*
X004987Y003254D02*
X006613Y003254D01*
X006680Y003352D02*
X004888Y003352D01*
X004790Y003451D02*
X006680Y003451D01*
X007094Y004140D02*
X007406Y004140D01*
X007343Y004239D02*
X007157Y004239D01*
X007157Y004337D02*
X007343Y004337D01*
X007343Y004436D02*
X007157Y004436D01*
X007157Y004534D02*
X007343Y004534D01*
X007343Y004633D02*
X007157Y004633D01*
X007153Y004731D02*
X007347Y004731D01*
X007408Y004808D02*
X007343Y004873D01*
X007343Y005236D01*
X007055Y005580D01*
X006180Y005580D01*
X006080Y005680D01*
X005935Y005825D01*
X005857Y005825D01*
X005725Y005957D01*
X005725Y006143D01*
X005857Y006275D01*
X006043Y006275D01*
X006175Y006143D01*
X006175Y006065D01*
X006320Y005920D01*
X006373Y005920D01*
X006363Y005938D01*
X006353Y005976D01*
X006353Y006950D01*
X006827Y006950D01*
X006827Y007050D01*
X006827Y008154D01*
X006483Y008154D01*
X006445Y008144D01*
X006411Y008124D01*
X006383Y008096D01*
X006363Y008062D01*
X006353Y008024D01*
X006353Y007050D01*
X006827Y007050D01*
X006927Y007050D01*
X007401Y007050D01*
X007401Y008024D01*
X007391Y008062D01*
X007371Y008096D01*
X007343Y008124D01*
X007309Y008144D01*
X007271Y008154D01*
X006927Y008154D01*
X006927Y007050D01*
X006927Y006950D01*
X007401Y006950D01*
X007401Y005976D01*
X007391Y005938D01*
X007371Y005904D01*
X007343Y005876D01*
X007309Y005856D01*
X007277Y005848D01*
X007305Y005820D01*
X007305Y005812D01*
X007598Y005461D01*
X007892Y005461D01*
X007957Y005397D01*
X007957Y005370D01*
X008740Y005370D01*
X008980Y005610D01*
X009320Y005610D01*
X009560Y005370D01*
X009560Y005030D01*
X009320Y004790D01*
X008980Y004790D01*
X008740Y005030D01*
X007957Y005030D01*
X007957Y004873D01*
X007892Y004808D01*
X007408Y004808D01*
X007386Y004830D02*
X007114Y004830D01*
X007157Y004928D02*
X007343Y004928D01*
X007343Y005027D02*
X007157Y005027D01*
X007157Y005125D02*
X007343Y005125D01*
X007343Y005224D02*
X007157Y005224D01*
X007157Y005322D02*
X007271Y005322D01*
X007189Y005421D02*
X007133Y005421D01*
X007106Y005519D02*
X004559Y005519D01*
X004461Y005421D02*
X004920Y005421D01*
X004903Y005322D02*
X004408Y005322D01*
X004428Y005302D02*
X004385Y005345D01*
X004926Y005886D01*
X005643Y005886D01*
X005707Y005950D01*
X005707Y008050D01*
X005643Y008114D01*
X004804Y008114D01*
X004739Y008050D01*
X004739Y007623D01*
X004437Y007623D01*
X004437Y007675D01*
X004373Y007740D01*
X003927Y007740D01*
X003863Y007675D01*
X003863Y007230D01*
X003927Y007166D01*
X004373Y007166D01*
X004437Y007230D01*
X004437Y007283D01*
X004739Y007283D01*
X004739Y006180D01*
X004575Y006015D01*
X004575Y006143D01*
X004443Y006275D01*
X004388Y006275D01*
X004437Y006325D01*
X004437Y006770D01*
X004373Y006834D01*
X004103Y006834D01*
X003582Y007355D01*
X003582Y007901D01*
X003518Y007966D01*
X002482Y007966D01*
X002418Y007901D01*
X002418Y007180D01*
X002482Y007116D01*
X003341Y007116D01*
X003863Y006594D01*
X003863Y006325D01*
X003927Y006260D01*
X003980Y006260D01*
X003980Y006180D01*
X004125Y006035D01*
X004125Y005957D01*
X004257Y005825D01*
X004385Y005825D01*
X004030Y005470D01*
X004030Y005360D01*
X003972Y005302D01*
X003972Y004345D01*
X004036Y004281D01*
X004364Y004281D01*
X004428Y004345D01*
X004428Y005302D01*
X004428Y005224D02*
X004903Y005224D01*
X004903Y005027D02*
X004428Y005027D01*
X004428Y005125D02*
X005202Y005125D01*
X005298Y005125D02*
X006002Y005125D01*
X006002Y005224D02*
X006098Y005224D01*
X006098Y005322D02*
X006002Y005322D01*
X006002Y005421D02*
X006098Y005421D01*
X006142Y005618D02*
X004658Y005618D01*
X004756Y005716D02*
X006044Y005716D01*
X005945Y005815D02*
X004855Y005815D01*
X004670Y006110D02*
X004575Y006110D01*
X004510Y006209D02*
X004739Y006209D01*
X004739Y006307D02*
X004420Y006307D01*
X004437Y006406D02*
X004739Y006406D01*
X004739Y006504D02*
X004437Y006504D01*
X004437Y006603D02*
X004739Y006603D01*
X004739Y006701D02*
X004437Y006701D01*
X004408Y006800D02*
X004739Y006800D01*
X004739Y006898D02*
X004040Y006898D01*
X003941Y006997D02*
X004739Y006997D01*
X004739Y007095D02*
X003843Y007095D01*
X003899Y007194D02*
X003744Y007194D01*
X003646Y007292D02*
X003863Y007292D01*
X003863Y007391D02*
X003582Y007391D01*
X003582Y007489D02*
X003863Y007489D01*
X003863Y007588D02*
X003582Y007588D01*
X003582Y007686D02*
X003873Y007686D01*
X003582Y007785D02*
X004739Y007785D01*
X004739Y007686D02*
X004427Y007686D01*
X004739Y007883D02*
X003582Y007883D01*
X004401Y007194D02*
X004739Y007194D01*
X004739Y007982D02*
X001719Y007982D01*
X001687Y008059D02*
X001509Y008237D01*
X001276Y008333D01*
X001024Y008333D01*
X000791Y008237D01*
X000613Y008059D01*
X000517Y007826D01*
X000517Y007574D01*
X000613Y007341D01*
X000791Y007163D01*
X001024Y007067D01*
X001276Y007067D01*
X001509Y007163D01*
X001687Y007341D01*
X001783Y007574D01*
X001783Y007826D01*
X001687Y008059D01*
X001665Y008080D02*
X004770Y008080D01*
X005677Y008080D02*
X006373Y008080D01*
X006353Y007982D02*
X005707Y007982D01*
X005707Y007883D02*
X006353Y007883D01*
X006353Y007785D02*
X005707Y007785D01*
X005707Y007686D02*
X006353Y007686D01*
X006353Y007588D02*
X005707Y007588D01*
X005707Y007489D02*
X006353Y007489D01*
X006353Y007391D02*
X005707Y007391D01*
X005707Y007292D02*
X006353Y007292D01*
X006353Y007194D02*
X005707Y007194D01*
X005707Y007095D02*
X006353Y007095D01*
X006353Y006898D02*
X005707Y006898D01*
X005707Y006800D02*
X006353Y006800D01*
X006353Y006701D02*
X005707Y006701D01*
X005707Y006603D02*
X006353Y006603D01*
X006353Y006504D02*
X005707Y006504D01*
X005707Y006406D02*
X006353Y006406D01*
X006353Y006307D02*
X005707Y006307D01*
X005707Y006209D02*
X005790Y006209D01*
X005725Y006110D02*
X005707Y006110D01*
X005707Y006012D02*
X005725Y006012D01*
X005769Y005913D02*
X005670Y005913D01*
X005505Y005491D02*
X005467Y005501D01*
X005298Y005501D01*
X005298Y005183D01*
X005597Y005183D01*
X005597Y005371D01*
X005587Y005409D01*
X005567Y005443D01*
X005539Y005471D01*
X005505Y005491D01*
X005580Y005421D02*
X005720Y005421D01*
X005703Y005322D02*
X005597Y005322D01*
X005597Y005224D02*
X005703Y005224D01*
X005703Y005027D02*
X005597Y005027D01*
X005597Y004928D02*
X005703Y004928D01*
X005731Y004830D02*
X005569Y004830D01*
X005553Y004731D02*
X005747Y004731D01*
X005743Y004633D02*
X005557Y004633D01*
X005557Y004534D02*
X005743Y004534D01*
X005743Y004436D02*
X005557Y004436D01*
X005557Y004337D02*
X005743Y004337D01*
X005743Y004239D02*
X005557Y004239D01*
X005494Y004140D02*
X005700Y004140D01*
X005601Y004042D02*
X005067Y004042D01*
X004881Y004337D02*
X004420Y004337D01*
X004428Y004436D02*
X004943Y004436D01*
X004943Y004534D02*
X004428Y004534D01*
X004428Y004633D02*
X004943Y004633D01*
X004947Y004731D02*
X004428Y004731D01*
X004428Y004830D02*
X004931Y004830D01*
X004903Y004928D02*
X004428Y004928D01*
X003972Y004928D02*
X003928Y004928D01*
X003928Y004830D02*
X003972Y004830D01*
X003972Y004731D02*
X003928Y004731D01*
X003928Y004633D02*
X003972Y004633D01*
X003972Y004534D02*
X003928Y004534D01*
X003928Y004436D02*
X003972Y004436D01*
X003980Y004337D02*
X003920Y004337D01*
X003928Y005027D02*
X003972Y005027D01*
X003972Y005125D02*
X003928Y005125D01*
X003928Y005224D02*
X003972Y005224D01*
X003992Y005322D02*
X003908Y005322D01*
X003870Y005421D02*
X004030Y005421D01*
X004079Y005519D02*
X003771Y005519D01*
X003673Y005618D02*
X004177Y005618D01*
X004276Y005716D02*
X000350Y005716D01*
X000350Y005618D02*
X002127Y005618D01*
X002029Y005519D02*
X001211Y005519D01*
X001309Y005421D02*
X001930Y005421D01*
X002214Y005224D02*
X002472Y005224D01*
X002492Y005322D02*
X002312Y005322D01*
X002472Y005125D02*
X002115Y005125D01*
X002472Y005027D02*
X001356Y005027D01*
X001258Y004928D02*
X002472Y004928D01*
X002472Y004830D02*
X001159Y004830D01*
X000741Y004830D02*
X000350Y004830D01*
X000350Y004928D02*
X000642Y004928D01*
X000544Y005027D02*
X000350Y005027D01*
X000350Y005125D02*
X000540Y005125D01*
X000540Y005224D02*
X000350Y005224D01*
X000350Y005322D02*
X000540Y005322D01*
X000591Y005421D02*
X000350Y005421D01*
X000350Y005519D02*
X000689Y005519D01*
X000350Y005815D02*
X004374Y005815D01*
X004169Y005913D02*
X003545Y005913D01*
X003530Y005905D02*
X003565Y005924D01*
X003592Y005952D01*
X003612Y005987D01*
X003622Y006025D01*
X003622Y006309D01*
X003050Y006309D01*
X003050Y005894D01*
X003492Y005894D01*
X003530Y005905D01*
X003619Y006012D02*
X004125Y006012D01*
X004050Y006110D02*
X003622Y006110D01*
X003622Y006209D02*
X003980Y006209D01*
X003880Y006307D02*
X003622Y006307D01*
X003622Y006409D02*
X003622Y006694D01*
X003612Y006732D01*
X003592Y006767D01*
X003565Y006794D01*
X003530Y006814D01*
X003492Y006824D01*
X003050Y006824D01*
X003050Y006409D01*
X003622Y006409D01*
X003622Y006504D02*
X003863Y006504D01*
X003863Y006406D02*
X003050Y006406D01*
X003050Y006409D02*
X003050Y006309D01*
X002950Y006309D01*
X002950Y005894D01*
X002508Y005894D01*
X002470Y005905D01*
X002435Y005924D01*
X002408Y005952D01*
X002388Y005987D01*
X002378Y006025D01*
X002378Y006309D01*
X002950Y006309D01*
X002950Y006409D01*
X002378Y006409D01*
X002378Y006694D01*
X002388Y006732D01*
X002408Y006767D01*
X002435Y006794D01*
X002470Y006814D01*
X002508Y006824D01*
X002950Y006824D01*
X002950Y006409D01*
X003050Y006409D01*
X003050Y006504D02*
X002950Y006504D01*
X002950Y006406D02*
X000350Y006406D01*
X000350Y006504D02*
X002378Y006504D01*
X002378Y006603D02*
X000350Y006603D01*
X000350Y006701D02*
X002379Y006701D01*
X002444Y006800D02*
X000350Y006800D01*
X000350Y006898D02*
X003559Y006898D01*
X003556Y006800D02*
X003657Y006800D01*
X003621Y006701D02*
X003756Y006701D01*
X003854Y006603D02*
X003622Y006603D01*
X003460Y006997D02*
X000350Y006997D01*
X000350Y007095D02*
X000956Y007095D01*
X000761Y007194D02*
X000350Y007194D01*
X000350Y007292D02*
X000663Y007292D01*
X000593Y007391D02*
X000350Y007391D01*
X000350Y007489D02*
X000552Y007489D01*
X000517Y007588D02*
X000350Y007588D01*
X000350Y007686D02*
X000517Y007686D01*
X000517Y007785D02*
X000357Y007785D01*
X000379Y007883D02*
X000541Y007883D01*
X000581Y007982D02*
X000411Y007982D01*
X000449Y008080D02*
X000635Y008080D01*
X000733Y008179D02*
X000521Y008179D01*
X000600Y008277D02*
X000889Y008277D01*
X000735Y008376D02*
X009365Y008376D01*
X009500Y008277D02*
X009111Y008277D01*
X009209Y008237D02*
X008976Y008333D01*
X008724Y008333D01*
X008491Y008237D01*
X008313Y008059D01*
X008217Y007826D01*
X008217Y007574D01*
X008313Y007341D01*
X008491Y007163D01*
X008724Y007067D01*
X008976Y007067D01*
X009209Y007163D01*
X009387Y007341D01*
X009483Y007574D01*
X009483Y007826D01*
X009387Y008059D01*
X009209Y008237D01*
X009267Y008179D02*
X009579Y008179D01*
X009651Y008080D02*
X009365Y008080D01*
X009419Y007982D02*
X009689Y007982D01*
X009721Y007883D02*
X009459Y007883D01*
X009483Y007785D02*
X009743Y007785D01*
X009750Y007686D02*
X009483Y007686D01*
X009483Y007588D02*
X009750Y007588D01*
X009750Y007489D02*
X009448Y007489D01*
X009407Y007391D02*
X009750Y007391D01*
X009750Y007292D02*
X009337Y007292D01*
X009239Y007194D02*
X009750Y007194D01*
X009750Y007095D02*
X009044Y007095D01*
X008656Y007095D02*
X007401Y007095D01*
X007401Y007194D02*
X008461Y007194D01*
X008363Y007292D02*
X007401Y007292D01*
X007401Y007391D02*
X008293Y007391D01*
X008252Y007489D02*
X007401Y007489D01*
X007401Y007588D02*
X008217Y007588D01*
X008217Y007686D02*
X007401Y007686D01*
X007401Y007785D02*
X008217Y007785D01*
X008241Y007883D02*
X007401Y007883D01*
X007401Y007982D02*
X008281Y007982D01*
X008335Y008080D02*
X007380Y008080D01*
X006927Y008080D02*
X006827Y008080D01*
X006827Y007982D02*
X006927Y007982D01*
X006927Y007883D02*
X006827Y007883D01*
X006827Y007785D02*
X006927Y007785D01*
X006927Y007686D02*
X006827Y007686D01*
X006827Y007588D02*
X006927Y007588D01*
X006927Y007489D02*
X006827Y007489D01*
X006827Y007391D02*
X006927Y007391D01*
X006927Y007292D02*
X006827Y007292D01*
X006827Y007194D02*
X006927Y007194D01*
X006927Y007095D02*
X006827Y007095D01*
X006827Y006997D02*
X005707Y006997D01*
X006110Y006209D02*
X006353Y006209D01*
X006353Y006110D02*
X006175Y006110D01*
X006229Y006012D02*
X006353Y006012D01*
X006380Y005421D02*
X006567Y005421D01*
X006543Y005322D02*
X006397Y005322D01*
X006397Y005224D02*
X006433Y005224D01*
X007305Y005815D02*
X009750Y005815D01*
X009750Y005913D02*
X007376Y005913D01*
X007401Y006012D02*
X009750Y006012D01*
X009750Y006110D02*
X007401Y006110D01*
X007401Y006209D02*
X009750Y006209D01*
X009750Y006307D02*
X007401Y006307D01*
X007401Y006406D02*
X009750Y006406D01*
X009750Y006504D02*
X007401Y006504D01*
X007401Y006603D02*
X009750Y006603D01*
X009750Y006701D02*
X007401Y006701D01*
X007401Y006800D02*
X009750Y006800D01*
X009750Y006898D02*
X007401Y006898D01*
X006927Y006997D02*
X009750Y006997D01*
X008589Y008277D02*
X001411Y008277D01*
X001567Y008179D02*
X008433Y008179D01*
X009125Y008474D02*
X000975Y008474D01*
X001759Y007883D02*
X002418Y007883D01*
X002418Y007785D02*
X001783Y007785D01*
X001783Y007686D02*
X002418Y007686D01*
X002418Y007588D02*
X001783Y007588D01*
X001748Y007489D02*
X002418Y007489D01*
X002418Y007391D02*
X001707Y007391D01*
X001637Y007292D02*
X002418Y007292D01*
X002418Y007194D02*
X001539Y007194D01*
X001344Y007095D02*
X003362Y007095D01*
X003050Y006800D02*
X002950Y006800D01*
X002950Y006701D02*
X003050Y006701D01*
X003050Y006603D02*
X002950Y006603D01*
X002950Y006307D02*
X003050Y006307D01*
X003050Y006209D02*
X002950Y006209D01*
X002950Y006110D02*
X003050Y006110D01*
X003050Y006012D02*
X002950Y006012D01*
X002950Y005913D02*
X003050Y005913D01*
X002455Y005913D02*
X000350Y005913D01*
X000350Y006012D02*
X002381Y006012D01*
X002378Y006110D02*
X000350Y006110D01*
X000350Y006209D02*
X002378Y006209D01*
X002378Y006307D02*
X000350Y006307D01*
X000350Y004731D02*
X002472Y004731D01*
X000746Y004633D02*
X000350Y004633D01*
X000350Y004534D02*
X000648Y004534D01*
X000549Y004436D02*
X000350Y004436D01*
X000350Y004337D02*
X000500Y004337D01*
X005202Y005224D02*
X005298Y005224D01*
X005298Y005322D02*
X005202Y005322D01*
X005202Y005421D02*
X005298Y005421D01*
X007385Y005716D02*
X009750Y005716D01*
X009750Y005618D02*
X007467Y005618D01*
X007550Y005519D02*
X008889Y005519D01*
X008791Y005421D02*
X007933Y005421D01*
X007957Y005027D02*
X008744Y005027D01*
X008842Y004928D02*
X007957Y004928D01*
X007914Y004830D02*
X008941Y004830D01*
X008964Y004650D02*
X008700Y004386D01*
X008700Y004250D01*
X009100Y004250D01*
X009100Y004650D01*
X008964Y004650D01*
X008946Y004633D02*
X007957Y004633D01*
X007953Y004731D02*
X009750Y004731D01*
X009750Y004633D02*
X009354Y004633D01*
X009336Y004650D02*
X009200Y004650D01*
X009200Y004250D01*
X009100Y004250D01*
X009100Y004150D01*
X008700Y004150D01*
X008700Y004014D01*
X008964Y003750D01*
X009100Y003750D01*
X009100Y004150D01*
X009200Y004150D01*
X009200Y004250D01*
X009600Y004250D01*
X009600Y004386D01*
X009336Y004650D01*
X009200Y004633D02*
X009100Y004633D01*
X009100Y004534D02*
X009200Y004534D01*
X009200Y004436D02*
X009100Y004436D01*
X009100Y004337D02*
X009200Y004337D01*
X009200Y004239D02*
X009750Y004239D01*
X009750Y004140D02*
X009600Y004140D01*
X009600Y004150D02*
X009200Y004150D01*
X009200Y003750D01*
X009336Y003750D01*
X009600Y004014D01*
X009600Y004150D01*
X009600Y004042D02*
X009750Y004042D01*
X009750Y003943D02*
X009529Y003943D01*
X009431Y003845D02*
X009750Y003845D01*
X009750Y003746D02*
X008470Y003746D01*
X008470Y003648D02*
X009750Y003648D01*
X009750Y003549D02*
X008470Y003549D01*
X008470Y003845D02*
X008869Y003845D01*
X008771Y003943D02*
X008470Y003943D01*
X008414Y004042D02*
X008700Y004042D01*
X008700Y004140D02*
X008298Y004140D01*
X008181Y004239D02*
X009100Y004239D01*
X009100Y004140D02*
X009200Y004140D01*
X009200Y004042D02*
X009100Y004042D01*
X009100Y003943D02*
X009200Y003943D01*
X009200Y003845D02*
X009100Y003845D01*
X008700Y004337D02*
X008065Y004337D01*
X007957Y004436D02*
X008749Y004436D01*
X008848Y004534D02*
X007957Y004534D01*
X009359Y004830D02*
X009750Y004830D01*
X009750Y004928D02*
X009458Y004928D01*
X009556Y005027D02*
X009750Y005027D01*
X009750Y005125D02*
X009560Y005125D01*
X009560Y005224D02*
X009750Y005224D01*
X009750Y005322D02*
X009560Y005322D01*
X009509Y005421D02*
X009750Y005421D01*
X009750Y005519D02*
X009411Y005519D01*
X009452Y004534D02*
X009750Y004534D01*
X009750Y004436D02*
X009551Y004436D01*
X009600Y004337D02*
X009750Y004337D01*
X007334Y002564D02*
X006806Y002564D01*
X006806Y002466D02*
X007334Y002466D01*
D20*
X005950Y006050D03*
X004350Y006050D03*
M02*
