G75*
%MOIN*%
%OFA0B0*%
%FSLAX24Y24*%
%IPPOS*%
%LPD*%
%AMOC8*
5,1,8,0,0,1.08239X$1,22.5*
%
%ADD10C,0.0040*%
%ADD11R,0.0400X0.0400*%
D10*
X003473Y004120D02*
X003353Y004240D01*
X003353Y004480D01*
X003593Y004480D02*
X003593Y004240D01*
X003473Y004120D01*
X003721Y004120D02*
X003962Y004120D01*
X003721Y004360D01*
X003721Y004420D01*
X003782Y004480D01*
X003902Y004480D01*
X003962Y004420D01*
X004210Y004480D02*
X004210Y004120D01*
X004330Y004120D02*
X004090Y004120D01*
X004330Y004360D02*
X004210Y004480D01*
X004150Y004720D02*
X004270Y004720D01*
X004330Y004780D01*
X004330Y004900D02*
X004210Y004960D01*
X004150Y004960D01*
X004090Y004900D01*
X004090Y004780D01*
X004150Y004720D01*
X003962Y004840D02*
X003842Y004720D01*
X003721Y004840D01*
X003721Y005080D01*
X003962Y005080D02*
X003962Y004840D01*
X004090Y005080D02*
X004330Y005080D01*
X004330Y004900D01*
X004330Y005320D02*
X004210Y005320D01*
X004270Y005320D02*
X004270Y005680D01*
X004330Y005680D02*
X004210Y005680D01*
X004084Y005680D02*
X003844Y005320D01*
X003844Y005680D01*
X004084Y005680D02*
X004084Y005320D01*
X005753Y005080D02*
X005753Y004840D01*
X005873Y004720D01*
X005993Y004840D01*
X005993Y005080D01*
X006121Y005080D02*
X006362Y005080D01*
X006362Y004900D01*
X006242Y004960D01*
X006182Y004960D01*
X006121Y004900D01*
X006121Y004780D01*
X006182Y004720D01*
X006302Y004720D01*
X006362Y004780D01*
X006490Y004900D02*
X006730Y004900D01*
X006670Y005320D02*
X006550Y005320D01*
X006490Y005380D01*
X006490Y005620D01*
X006550Y005680D01*
X006670Y005680D01*
X006730Y005620D01*
X006730Y005380D01*
X006670Y005320D01*
X006362Y005380D02*
X006302Y005320D01*
X006182Y005320D01*
X006121Y005380D01*
X006121Y005680D01*
X005993Y005680D02*
X005753Y005680D01*
X005873Y005680D02*
X005873Y005320D01*
X006362Y005380D02*
X006362Y005680D01*
X006302Y004480D02*
X006182Y004480D01*
X006121Y004420D01*
X006121Y004180D01*
X006182Y004120D01*
X006302Y004120D01*
X006362Y004180D01*
X006302Y004300D02*
X006121Y004300D01*
X005993Y004240D02*
X005873Y004120D01*
X005753Y004240D01*
X005753Y004480D01*
X005993Y004480D02*
X005993Y004240D01*
X006302Y004300D02*
X006362Y004360D01*
X006362Y004420D01*
X006302Y004480D01*
X006490Y004300D02*
X006730Y004300D01*
X006242Y003880D02*
X006242Y003520D01*
X006362Y003520D02*
X006121Y003520D01*
X005993Y003520D02*
X005753Y003760D01*
X005753Y003820D01*
X005813Y003880D01*
X005933Y003880D01*
X005993Y003820D01*
X006242Y003880D02*
X006362Y003760D01*
X006490Y003700D02*
X006730Y003700D01*
X005993Y003520D02*
X005753Y003520D01*
X005625Y003640D02*
X005505Y003520D01*
X005385Y003640D01*
X005385Y003880D01*
X005625Y003880D02*
X005625Y003640D01*
D11*
X004750Y004300D03*
X004750Y004900D03*
X007150Y004900D03*
X007150Y004300D03*
X007150Y003700D03*
M02*
