G75*
%MOIN*%
%OFA0B0*%
%FSLAX24Y24*%
%IPPOS*%
%LPD*%
%AMOC8*
5,1,8,0,0,1.08239X$1,22.5*
%
%ADD10R,0.0945X0.0630*%
%ADD11R,0.0394X0.0433*%
%ADD12R,0.0354X0.0354*%
%ADD13OC8,0.0600*%
%ADD14R,0.0748X0.2008*%
%ADD15R,0.0236X0.0866*%
%ADD16R,0.0472X0.0472*%
%ADD17R,0.0591X0.0630*%
%ADD18C,0.0120*%
%ADD19C,0.0100*%
%ADD20C,0.0230*%
D10*
X003000Y005859D03*
X003000Y007041D03*
D11*
X005250Y004635D03*
X005250Y003965D03*
X006050Y003965D03*
X006050Y004635D03*
X006850Y004635D03*
X006850Y003965D03*
X007650Y003965D03*
X007650Y004635D03*
D12*
X004150Y006047D03*
X004150Y006953D03*
D13*
X000950Y004700D03*
X000950Y003700D03*
X009350Y003700D03*
X009350Y004700D03*
D14*
X006877Y006500D03*
X005223Y006500D03*
D15*
X004200Y004524D03*
X003700Y004524D03*
X003200Y004524D03*
X002700Y004524D03*
X002700Y002476D03*
X003200Y002476D03*
X003700Y002476D03*
X004200Y002476D03*
D16*
X007680Y002794D03*
X007680Y002006D03*
D17*
X006400Y002400D03*
D18*
X006850Y002750D01*
X006850Y003965D01*
X006450Y004050D02*
X006450Y004500D01*
X006550Y004600D01*
X006815Y004600D01*
X006850Y004635D01*
X007135Y005250D02*
X006350Y005250D01*
X006150Y005400D01*
X006150Y005900D01*
X006000Y006050D01*
X005950Y006050D01*
X005150Y005850D02*
X005150Y006427D01*
X005223Y006500D01*
X005070Y006953D01*
X004150Y006953D01*
X003407Y006791D02*
X004150Y006047D01*
X004450Y006050D01*
X004550Y006050D01*
X005150Y005850D02*
X004200Y004900D01*
X004200Y004524D01*
X003700Y004524D02*
X003700Y003950D01*
X003850Y003800D01*
X005085Y003800D01*
X005250Y003965D01*
X005600Y003500D02*
X003650Y003500D01*
X003200Y003950D01*
X003200Y004524D01*
X003700Y004524D02*
X003700Y005050D01*
X003550Y005200D01*
X002250Y005200D01*
X001750Y004700D01*
X000950Y004700D01*
X002700Y004524D02*
X002700Y003850D01*
X003300Y003250D01*
X004450Y003250D01*
X005850Y001850D01*
X007424Y001850D01*
X007680Y002006D01*
X008056Y002006D01*
X008200Y002150D01*
X008200Y003820D01*
X008055Y003965D01*
X007650Y003965D01*
X007650Y004635D02*
X007135Y005250D01*
X007685Y004700D02*
X007650Y004635D01*
X007685Y004700D02*
X009350Y004700D01*
X006450Y004050D02*
X006365Y003965D01*
X006050Y003965D01*
X005950Y003850D01*
X005600Y003500D01*
X003407Y006791D02*
X003000Y007041D01*
D19*
X000437Y000837D02*
X000584Y000634D01*
X000787Y000487D01*
X001025Y000410D01*
X001150Y000400D01*
X009150Y000400D01*
X009275Y000410D01*
X009513Y000487D01*
X009716Y000634D01*
X009863Y000837D01*
X009940Y001075D01*
X009950Y001200D01*
X009950Y007200D01*
X009940Y007325D01*
X009863Y007563D01*
X009716Y007766D01*
X009513Y007913D01*
X009275Y007990D01*
X009150Y008000D01*
X001150Y008000D01*
X001025Y007990D01*
X000787Y007913D01*
X000584Y007766D01*
X000437Y007563D01*
X000360Y007325D01*
X000350Y007200D01*
X000350Y001200D01*
X000360Y001075D01*
X000437Y000837D01*
X000420Y000890D02*
X000593Y000890D01*
X000613Y000841D02*
X000791Y000663D01*
X001024Y000567D01*
X001276Y000567D01*
X001509Y000663D01*
X001687Y000841D01*
X001783Y001074D01*
X001783Y001326D01*
X001687Y001559D01*
X001509Y001737D01*
X001276Y001833D01*
X001024Y001833D01*
X000791Y001737D01*
X000613Y001559D01*
X000517Y001326D01*
X000517Y001074D01*
X000613Y000841D01*
X000664Y000791D02*
X000470Y000791D01*
X000542Y000693D02*
X000762Y000693D01*
X000640Y000594D02*
X000959Y000594D01*
X000775Y000496D02*
X009525Y000496D01*
X009660Y000594D02*
X009241Y000594D01*
X009176Y000567D02*
X009409Y000663D01*
X009587Y000841D01*
X009683Y001074D01*
X009683Y001326D01*
X009587Y001559D01*
X009409Y001737D01*
X009176Y001833D01*
X008924Y001833D01*
X008691Y001737D01*
X008513Y001559D01*
X008417Y001326D01*
X008417Y001074D01*
X008513Y000841D01*
X008691Y000663D01*
X008924Y000567D01*
X009176Y000567D01*
X009438Y000693D02*
X009758Y000693D01*
X009830Y000791D02*
X009536Y000791D01*
X009607Y000890D02*
X009880Y000890D01*
X009912Y000988D02*
X009647Y000988D01*
X009683Y001087D02*
X009941Y001087D01*
X009949Y001185D02*
X009683Y001185D01*
X009683Y001284D02*
X009950Y001284D01*
X009950Y001382D02*
X009660Y001382D01*
X009619Y001481D02*
X009950Y001481D01*
X009950Y001579D02*
X009566Y001579D01*
X009468Y001678D02*
X009950Y001678D01*
X009950Y001776D02*
X009314Y001776D01*
X008786Y001776D02*
X008026Y001776D01*
X008026Y001725D02*
X008026Y001836D01*
X008127Y001836D01*
X008270Y001980D01*
X008370Y002080D01*
X008370Y003890D01*
X008225Y004036D01*
X008125Y004135D01*
X007957Y004135D01*
X007957Y004227D01*
X007892Y004292D01*
X007408Y004292D01*
X007343Y004227D01*
X007343Y003703D01*
X007408Y003639D01*
X007892Y003639D01*
X007957Y003703D01*
X007957Y003795D01*
X007984Y003795D01*
X008030Y003750D01*
X008030Y002220D01*
X008026Y002217D01*
X008026Y002288D01*
X007962Y002353D01*
X007398Y002353D01*
X007334Y002288D01*
X007334Y002020D01*
X006786Y002020D01*
X006806Y002039D01*
X006806Y002500D01*
X006908Y002580D01*
X006920Y002580D01*
X006963Y002622D01*
X007010Y002659D01*
X007011Y002671D01*
X007020Y002679D01*
X007020Y002739D01*
X007027Y002798D01*
X007020Y002808D01*
X007020Y003639D01*
X007092Y003639D01*
X007157Y003703D01*
X007157Y004227D01*
X007092Y004292D01*
X006620Y004292D01*
X006620Y004308D01*
X007092Y004308D01*
X007157Y004373D01*
X007157Y004897D01*
X007092Y004961D01*
X006608Y004961D01*
X006543Y004897D01*
X006543Y004770D01*
X006480Y004770D01*
X006397Y004687D01*
X006397Y004871D01*
X006387Y004909D01*
X006367Y004943D01*
X006339Y004971D01*
X006305Y004991D01*
X006267Y005001D01*
X006098Y005001D01*
X006098Y004683D01*
X006002Y004683D01*
X006002Y005001D01*
X005833Y005001D01*
X005795Y004991D01*
X005761Y004971D01*
X005733Y004943D01*
X005713Y004909D01*
X005703Y004871D01*
X005703Y004683D01*
X006002Y004683D01*
X006002Y004586D01*
X005703Y004586D01*
X005703Y004398D01*
X005713Y004360D01*
X005733Y004326D01*
X005761Y004298D01*
X005794Y004279D01*
X005743Y004227D01*
X005743Y003884D01*
X005530Y003670D01*
X005524Y003670D01*
X005557Y003703D01*
X005557Y004227D01*
X005506Y004279D01*
X005539Y004298D01*
X005567Y004326D01*
X005587Y004360D01*
X005597Y004398D01*
X005597Y004586D01*
X005298Y004586D01*
X005298Y004683D01*
X005202Y004683D01*
X005202Y005001D01*
X005033Y005001D01*
X004995Y004991D01*
X004961Y004971D01*
X004933Y004943D01*
X004913Y004909D01*
X004903Y004871D01*
X004903Y004683D01*
X005202Y004683D01*
X005202Y004586D01*
X004903Y004586D01*
X004903Y004398D01*
X004913Y004360D01*
X004933Y004326D01*
X004961Y004298D01*
X004994Y004279D01*
X004943Y004227D01*
X004943Y003970D01*
X003920Y003970D01*
X003887Y004004D01*
X003928Y004045D01*
X003928Y005002D01*
X003870Y005060D01*
X003870Y005120D01*
X003620Y005370D01*
X002180Y005370D01*
X002080Y005270D01*
X001680Y004870D01*
X001360Y004870D01*
X001120Y005110D01*
X000780Y005110D01*
X000540Y004870D01*
X000540Y004530D01*
X000780Y004290D01*
X001120Y004290D01*
X001360Y004530D01*
X001820Y004530D01*
X002320Y005030D01*
X002500Y005030D01*
X002472Y005002D01*
X002472Y004045D01*
X002530Y003987D01*
X002530Y003780D01*
X003130Y003180D01*
X003230Y003080D01*
X004380Y003080D01*
X005680Y001780D01*
X005780Y001680D01*
X007378Y001680D01*
X007398Y001660D01*
X007962Y001660D01*
X008026Y001725D01*
X007979Y001678D02*
X008632Y001678D01*
X008534Y001579D02*
X001666Y001579D01*
X001719Y001481D02*
X008481Y001481D01*
X008440Y001382D02*
X001760Y001382D01*
X001783Y001284D02*
X008417Y001284D01*
X008417Y001185D02*
X001783Y001185D01*
X001783Y001087D02*
X008417Y001087D01*
X008453Y000988D02*
X001747Y000988D01*
X001707Y000890D02*
X008493Y000890D01*
X008564Y000791D02*
X001636Y000791D01*
X001538Y000693D02*
X008662Y000693D01*
X008859Y000594D02*
X001341Y000594D01*
X000553Y000988D02*
X000388Y000988D01*
X000359Y001087D02*
X000517Y001087D01*
X000517Y001185D02*
X000351Y001185D01*
X000350Y001284D02*
X000517Y001284D01*
X000540Y001382D02*
X000350Y001382D01*
X000350Y001481D02*
X000581Y001481D01*
X000634Y001579D02*
X000350Y001579D01*
X000350Y001678D02*
X000732Y001678D01*
X000886Y001776D02*
X000350Y001776D01*
X000350Y001875D02*
X005585Y001875D01*
X005487Y001973D02*
X004451Y001973D01*
X004458Y001985D02*
X004468Y002024D01*
X004468Y002467D01*
X004209Y002467D01*
X004209Y001893D01*
X004338Y001893D01*
X004376Y001904D01*
X004410Y001923D01*
X004438Y001951D01*
X004458Y001985D01*
X004468Y002072D02*
X005388Y002072D01*
X005290Y002170D02*
X004468Y002170D01*
X004468Y002269D02*
X005191Y002269D01*
X005093Y002367D02*
X004468Y002367D01*
X004468Y002466D02*
X004994Y002466D01*
X004896Y002564D02*
X004468Y002564D01*
X004468Y002485D02*
X004468Y002929D01*
X004458Y002967D01*
X004438Y003002D01*
X004410Y003029D01*
X004376Y003049D01*
X004338Y003059D01*
X004209Y003059D01*
X004209Y002485D01*
X004468Y002485D01*
X004468Y002663D02*
X004797Y002663D01*
X004699Y002761D02*
X004468Y002761D01*
X004468Y002860D02*
X004600Y002860D01*
X004502Y002958D02*
X004460Y002958D01*
X004403Y003057D02*
X004349Y003057D01*
X004209Y003057D02*
X004191Y003057D01*
X004191Y003059D02*
X004062Y003059D01*
X004024Y003049D01*
X003990Y003029D01*
X003962Y003002D01*
X003950Y002981D01*
X003938Y003002D01*
X003910Y003029D01*
X003876Y003049D01*
X003838Y003059D01*
X003709Y003059D01*
X003709Y002485D01*
X004191Y002485D01*
X004191Y002467D01*
X004209Y002467D01*
X004209Y002485D01*
X004191Y002485D01*
X004191Y003059D01*
X004191Y002958D02*
X004209Y002958D01*
X004209Y002860D02*
X004191Y002860D01*
X004191Y002761D02*
X004209Y002761D01*
X004209Y002663D02*
X004191Y002663D01*
X004191Y002564D02*
X004209Y002564D01*
X004191Y002467D02*
X003932Y002467D01*
X003709Y002467D01*
X003709Y001893D01*
X003838Y001893D01*
X003876Y001904D01*
X003910Y001923D01*
X003938Y001951D01*
X003950Y001972D01*
X003962Y001951D01*
X003990Y001923D01*
X004024Y001904D01*
X004062Y001893D01*
X004191Y001893D01*
X004191Y002467D01*
X004191Y002466D02*
X004209Y002466D01*
X004209Y002367D02*
X004191Y002367D01*
X004191Y002269D02*
X004209Y002269D01*
X004209Y002170D02*
X004191Y002170D01*
X004191Y002072D02*
X004209Y002072D01*
X004209Y001973D02*
X004191Y001973D01*
X003709Y001973D02*
X003691Y001973D01*
X003691Y001893D02*
X003562Y001893D01*
X003524Y001904D01*
X003490Y001923D01*
X003462Y001951D01*
X003442Y001985D01*
X003432Y002024D01*
X003432Y002467D01*
X003691Y002467D01*
X003709Y002467D01*
X003709Y002485D01*
X003691Y002485D01*
X003691Y002467D01*
X003691Y001893D01*
X003691Y002072D02*
X003709Y002072D01*
X003709Y002170D02*
X003691Y002170D01*
X003691Y002269D02*
X003709Y002269D01*
X003709Y002367D02*
X003691Y002367D01*
X003691Y002466D02*
X003709Y002466D01*
X003691Y002485D02*
X003432Y002485D01*
X003432Y002929D01*
X003442Y002967D01*
X003462Y003002D01*
X003490Y003029D01*
X003524Y003049D01*
X003562Y003059D01*
X003691Y003059D01*
X003691Y002485D01*
X003691Y002564D02*
X003709Y002564D01*
X003709Y002663D02*
X003691Y002663D01*
X003691Y002761D02*
X003709Y002761D01*
X003709Y002860D02*
X003691Y002860D01*
X003691Y002958D02*
X003709Y002958D01*
X003709Y003057D02*
X003691Y003057D01*
X003551Y003057D02*
X002849Y003057D01*
X002838Y003059D02*
X002709Y003059D01*
X002709Y002485D01*
X002968Y002485D01*
X002968Y002929D01*
X002958Y002967D01*
X002938Y003002D01*
X002910Y003029D01*
X002876Y003049D01*
X002838Y003059D01*
X002709Y003057D02*
X002691Y003057D01*
X002691Y003059D02*
X002562Y003059D01*
X002524Y003049D01*
X002490Y003029D01*
X002462Y003002D01*
X002442Y002967D01*
X002432Y002929D01*
X002432Y002485D01*
X002691Y002485D01*
X002691Y002467D01*
X002709Y002467D01*
X002709Y001893D01*
X002838Y001893D01*
X002876Y001904D01*
X002910Y001923D01*
X002938Y001951D01*
X002958Y001985D01*
X002968Y002024D01*
X002968Y002467D01*
X002709Y002467D01*
X002709Y002485D01*
X002691Y002485D01*
X002691Y003059D01*
X002691Y002958D02*
X002709Y002958D01*
X002709Y002860D02*
X002691Y002860D01*
X002691Y002761D02*
X002709Y002761D01*
X002709Y002663D02*
X002691Y002663D01*
X002691Y002564D02*
X002709Y002564D01*
X002691Y002467D02*
X002432Y002467D01*
X002432Y002024D01*
X002442Y001985D01*
X002462Y001951D01*
X002490Y001923D01*
X002524Y001904D01*
X002562Y001893D01*
X002691Y001893D01*
X002691Y002467D01*
X002691Y002466D02*
X002709Y002466D01*
X002709Y002367D02*
X002691Y002367D01*
X002691Y002269D02*
X002709Y002269D01*
X002709Y002170D02*
X002691Y002170D01*
X002691Y002072D02*
X002709Y002072D01*
X002709Y001973D02*
X002691Y001973D01*
X002951Y001973D02*
X002997Y001973D01*
X002972Y001998D02*
X003036Y001933D01*
X003364Y001933D01*
X003428Y001998D01*
X003428Y002955D01*
X003364Y003019D01*
X003036Y003019D01*
X002972Y002955D01*
X002972Y001998D01*
X002968Y002072D02*
X002972Y002072D01*
X002968Y002170D02*
X002972Y002170D01*
X002968Y002269D02*
X002972Y002269D01*
X002968Y002367D02*
X002972Y002367D01*
X002968Y002466D02*
X002972Y002466D01*
X002968Y002564D02*
X002972Y002564D01*
X002968Y002663D02*
X002972Y002663D01*
X002968Y002761D02*
X002972Y002761D01*
X002968Y002860D02*
X002972Y002860D01*
X002960Y002958D02*
X002975Y002958D01*
X003155Y003155D02*
X000350Y003155D01*
X000350Y003057D02*
X002551Y003057D01*
X002440Y002958D02*
X000350Y002958D01*
X000350Y002860D02*
X002432Y002860D01*
X002432Y002761D02*
X000350Y002761D01*
X000350Y002663D02*
X002432Y002663D01*
X002432Y002564D02*
X000350Y002564D01*
X000350Y002466D02*
X002432Y002466D01*
X002432Y002367D02*
X000350Y002367D01*
X000350Y002269D02*
X002432Y002269D01*
X002432Y002170D02*
X000350Y002170D01*
X000350Y002072D02*
X002432Y002072D01*
X002449Y001973D02*
X000350Y001973D01*
X001414Y001776D02*
X005684Y001776D01*
X006806Y002072D02*
X007334Y002072D01*
X007334Y002170D02*
X006806Y002170D01*
X006806Y002269D02*
X007334Y002269D01*
X007398Y002447D02*
X007962Y002447D01*
X008026Y002512D01*
X008026Y003075D01*
X007962Y003140D01*
X007398Y003140D01*
X007334Y003075D01*
X007334Y002512D01*
X007398Y002447D01*
X007380Y002466D02*
X006806Y002466D01*
X006806Y002367D02*
X008030Y002367D01*
X008026Y002269D02*
X008030Y002269D01*
X008030Y002466D02*
X007980Y002466D01*
X008026Y002564D02*
X008030Y002564D01*
X008026Y002663D02*
X008030Y002663D01*
X008026Y002761D02*
X008030Y002761D01*
X008026Y002860D02*
X008030Y002860D01*
X008026Y002958D02*
X008030Y002958D01*
X008026Y003057D02*
X008030Y003057D01*
X008030Y003155D02*
X007020Y003155D01*
X007020Y003057D02*
X007334Y003057D01*
X007334Y002958D02*
X007020Y002958D01*
X007020Y002860D02*
X007334Y002860D01*
X007334Y002761D02*
X007023Y002761D01*
X007010Y002663D02*
X007334Y002663D01*
X007334Y002564D02*
X006888Y002564D01*
X007020Y003254D02*
X008030Y003254D01*
X008030Y003352D02*
X007020Y003352D01*
X007020Y003451D02*
X008030Y003451D01*
X008030Y003549D02*
X007020Y003549D01*
X007101Y003648D02*
X007399Y003648D01*
X007343Y003746D02*
X007157Y003746D01*
X007157Y003845D02*
X007343Y003845D01*
X007343Y003943D02*
X007157Y003943D01*
X007157Y004042D02*
X007343Y004042D01*
X007343Y004140D02*
X007157Y004140D01*
X007146Y004239D02*
X007354Y004239D01*
X007408Y004308D02*
X007892Y004308D01*
X007957Y004373D01*
X007957Y004530D01*
X008940Y004530D01*
X009180Y004290D01*
X009520Y004290D01*
X009760Y004530D01*
X009760Y004870D01*
X009520Y005110D01*
X009180Y005110D01*
X008940Y004870D01*
X007957Y004870D01*
X007957Y004897D01*
X007892Y004961D01*
X007598Y004961D01*
X007305Y005312D01*
X007305Y005320D01*
X007277Y005348D01*
X007309Y005356D01*
X007343Y005376D01*
X007371Y005404D01*
X007391Y005438D01*
X007401Y005476D01*
X007401Y006450D01*
X006927Y006450D01*
X006927Y006550D01*
X007401Y006550D01*
X007401Y007524D01*
X007391Y007562D01*
X007371Y007596D01*
X007343Y007624D01*
X007309Y007644D01*
X007271Y007654D01*
X006927Y007654D01*
X006927Y006550D01*
X006827Y006550D01*
X006827Y007654D01*
X006483Y007654D01*
X006445Y007644D01*
X006411Y007624D01*
X006383Y007596D01*
X006363Y007562D01*
X006353Y007524D01*
X006353Y006550D01*
X006827Y006550D01*
X006827Y006450D01*
X006353Y006450D01*
X006353Y005476D01*
X006358Y005456D01*
X006320Y005485D01*
X006320Y005970D01*
X006220Y006070D01*
X006175Y006115D01*
X006175Y006143D01*
X006043Y006275D01*
X005857Y006275D01*
X005725Y006143D01*
X005725Y005957D01*
X005857Y005825D01*
X005980Y005825D01*
X005980Y005457D01*
X005972Y005446D01*
X005980Y005388D01*
X005980Y005330D01*
X005990Y005320D01*
X005992Y005306D01*
X006038Y005271D01*
X006080Y005230D01*
X006093Y005230D01*
X006238Y005121D01*
X006280Y005080D01*
X006293Y005080D01*
X006304Y005072D01*
X006362Y005080D01*
X007055Y005080D01*
X007343Y004736D01*
X007343Y004373D01*
X007408Y004308D01*
X007379Y004337D02*
X007121Y004337D01*
X007157Y004436D02*
X007343Y004436D01*
X007343Y004534D02*
X007157Y004534D01*
X007157Y004633D02*
X007343Y004633D01*
X007343Y004731D02*
X007157Y004731D01*
X007157Y004830D02*
X007265Y004830D01*
X007183Y004928D02*
X007126Y004928D01*
X007100Y005027D02*
X004567Y005027D01*
X004665Y005125D02*
X006233Y005125D01*
X006102Y005224D02*
X004764Y005224D01*
X004862Y005322D02*
X005988Y005322D01*
X005975Y005421D02*
X005677Y005421D01*
X005707Y005450D02*
X005707Y007550D01*
X005643Y007614D01*
X004804Y007614D01*
X004739Y007550D01*
X004739Y007123D01*
X004437Y007123D01*
X004437Y007175D01*
X004373Y007240D01*
X003927Y007240D01*
X003863Y007175D01*
X003863Y006730D01*
X003927Y006666D01*
X004373Y006666D01*
X004437Y006730D01*
X004437Y006783D01*
X004739Y006783D01*
X004739Y006179D01*
X004643Y006275D01*
X004457Y006275D01*
X004437Y006255D01*
X004437Y006270D01*
X004373Y006334D01*
X004103Y006334D01*
X003582Y006855D01*
X003582Y007401D01*
X003518Y007466D01*
X002482Y007466D01*
X002418Y007401D01*
X002418Y006680D01*
X002482Y006616D01*
X003341Y006616D01*
X003863Y006094D01*
X003863Y005825D01*
X003927Y005760D01*
X004373Y005760D01*
X004437Y005825D01*
X004437Y005845D01*
X004457Y005825D01*
X004643Y005825D01*
X004739Y005921D01*
X004739Y005680D01*
X004126Y005067D01*
X004036Y005067D01*
X003972Y005002D01*
X003972Y004045D01*
X004036Y003981D01*
X004364Y003981D01*
X004428Y004045D01*
X004428Y004888D01*
X004926Y005386D01*
X005643Y005386D01*
X005707Y005450D01*
X005707Y005519D02*
X005980Y005519D01*
X005980Y005618D02*
X005707Y005618D01*
X005707Y005716D02*
X005980Y005716D01*
X005980Y005815D02*
X005707Y005815D01*
X005707Y005913D02*
X005769Y005913D01*
X005725Y006012D02*
X005707Y006012D01*
X005707Y006110D02*
X005725Y006110D01*
X005707Y006209D02*
X005790Y006209D01*
X005707Y006307D02*
X006353Y006307D01*
X006353Y006209D02*
X006110Y006209D01*
X006180Y006110D02*
X006353Y006110D01*
X006353Y006012D02*
X006279Y006012D01*
X006320Y005913D02*
X006353Y005913D01*
X006353Y005815D02*
X006320Y005815D01*
X006320Y005716D02*
X006353Y005716D01*
X006353Y005618D02*
X006320Y005618D01*
X006320Y005519D02*
X006353Y005519D01*
X006376Y004928D02*
X006574Y004928D01*
X006543Y004830D02*
X006397Y004830D01*
X006397Y004731D02*
X006441Y004731D01*
X006098Y004731D02*
X006002Y004731D01*
X006002Y004633D02*
X005298Y004633D01*
X005298Y004683D02*
X005597Y004683D01*
X005597Y004871D01*
X005587Y004909D01*
X005567Y004943D01*
X005539Y004971D01*
X005505Y004991D01*
X005467Y005001D01*
X005298Y005001D01*
X005298Y004683D01*
X005298Y004731D02*
X005202Y004731D01*
X005202Y004633D02*
X004428Y004633D01*
X004428Y004731D02*
X004903Y004731D01*
X004903Y004830D02*
X004428Y004830D01*
X004468Y004928D02*
X004924Y004928D01*
X005202Y004928D02*
X005298Y004928D01*
X005298Y004830D02*
X005202Y004830D01*
X004903Y004534D02*
X004428Y004534D01*
X004428Y004436D02*
X004903Y004436D01*
X004927Y004337D02*
X004428Y004337D01*
X004428Y004239D02*
X004954Y004239D01*
X004943Y004140D02*
X004428Y004140D01*
X004425Y004042D02*
X004943Y004042D01*
X005557Y004042D02*
X005743Y004042D01*
X005743Y004140D02*
X005557Y004140D01*
X005546Y004239D02*
X005754Y004239D01*
X005727Y004337D02*
X005573Y004337D01*
X005597Y004436D02*
X005703Y004436D01*
X005703Y004534D02*
X005597Y004534D01*
X005597Y004731D02*
X005703Y004731D01*
X005703Y004830D02*
X005597Y004830D01*
X005576Y004928D02*
X005724Y004928D01*
X006002Y004928D02*
X006098Y004928D01*
X006098Y004830D02*
X006002Y004830D01*
X005743Y003943D02*
X005557Y003943D01*
X005557Y003845D02*
X005704Y003845D01*
X005606Y003746D02*
X005557Y003746D01*
X004051Y003057D02*
X003849Y003057D01*
X003440Y002958D02*
X003425Y002958D01*
X003428Y002860D02*
X003432Y002860D01*
X003428Y002761D02*
X003432Y002761D01*
X003428Y002663D02*
X003432Y002663D01*
X003428Y002564D02*
X003432Y002564D01*
X003428Y002466D02*
X003432Y002466D01*
X003428Y002367D02*
X003432Y002367D01*
X003428Y002269D02*
X003432Y002269D01*
X003428Y002170D02*
X003432Y002170D01*
X003428Y002072D02*
X003432Y002072D01*
X003449Y001973D02*
X003403Y001973D01*
X003056Y003254D02*
X001140Y003254D01*
X001136Y003250D02*
X001400Y003514D01*
X001400Y003650D01*
X001000Y003650D01*
X001000Y003750D01*
X000900Y003750D01*
X000900Y004150D01*
X000764Y004150D01*
X000500Y003886D01*
X000500Y003750D01*
X000900Y003750D01*
X000900Y003650D01*
X000500Y003650D01*
X000500Y003514D01*
X000764Y003250D01*
X000900Y003250D01*
X000900Y003650D01*
X001000Y003650D01*
X001000Y003250D01*
X001136Y003250D01*
X001000Y003254D02*
X000900Y003254D01*
X000760Y003254D02*
X000350Y003254D01*
X000350Y003352D02*
X000662Y003352D01*
X000563Y003451D02*
X000350Y003451D01*
X000350Y003549D02*
X000500Y003549D01*
X000500Y003648D02*
X000350Y003648D01*
X000350Y003746D02*
X000900Y003746D01*
X000900Y003648D02*
X001000Y003648D01*
X001000Y003746D02*
X002564Y003746D01*
X002662Y003648D02*
X001400Y003648D01*
X001400Y003549D02*
X002761Y003549D01*
X002859Y003451D02*
X001337Y003451D01*
X001238Y003352D02*
X002958Y003352D01*
X002530Y003845D02*
X001400Y003845D01*
X001400Y003886D02*
X001136Y004150D01*
X001000Y004150D01*
X001000Y003750D01*
X001400Y003750D01*
X001400Y003886D01*
X001343Y003943D02*
X002530Y003943D01*
X002475Y004042D02*
X001245Y004042D01*
X001146Y004140D02*
X002472Y004140D01*
X002472Y004239D02*
X000350Y004239D01*
X000350Y004337D02*
X000733Y004337D01*
X000635Y004436D02*
X000350Y004436D01*
X000350Y004534D02*
X000540Y004534D01*
X000540Y004633D02*
X000350Y004633D01*
X000350Y004731D02*
X000540Y004731D01*
X000540Y004830D02*
X000350Y004830D01*
X000350Y004928D02*
X000598Y004928D01*
X000697Y005027D02*
X000350Y005027D01*
X000350Y005125D02*
X001935Y005125D01*
X002033Y005224D02*
X000350Y005224D01*
X000350Y005322D02*
X002132Y005322D01*
X002388Y005487D02*
X002378Y005525D01*
X002378Y005809D01*
X002950Y005809D01*
X003050Y005809D01*
X003050Y005394D01*
X003492Y005394D01*
X003530Y005405D01*
X003565Y005424D01*
X003592Y005452D01*
X003612Y005487D01*
X003622Y005525D01*
X003622Y005809D01*
X003050Y005809D01*
X003050Y005909D01*
X003622Y005909D01*
X003622Y006194D01*
X003612Y006232D01*
X003592Y006267D01*
X003565Y006294D01*
X003530Y006314D01*
X003492Y006324D01*
X003050Y006324D01*
X003050Y005909D01*
X002950Y005909D01*
X002950Y005809D01*
X002950Y005394D01*
X002508Y005394D01*
X002470Y005405D01*
X002435Y005424D01*
X002408Y005452D01*
X002388Y005487D01*
X002379Y005519D02*
X000350Y005519D01*
X000350Y005618D02*
X002378Y005618D01*
X002378Y005716D02*
X000350Y005716D01*
X000350Y005815D02*
X002950Y005815D01*
X002950Y005909D02*
X002378Y005909D01*
X002378Y006194D01*
X002388Y006232D01*
X002408Y006267D01*
X002435Y006294D01*
X002470Y006314D01*
X002508Y006324D01*
X002950Y006324D01*
X002950Y005909D01*
X002950Y005913D02*
X003050Y005913D01*
X003050Y005815D02*
X003873Y005815D01*
X003863Y005913D02*
X003622Y005913D01*
X003622Y006012D02*
X003863Y006012D01*
X003847Y006110D02*
X003622Y006110D01*
X003619Y006209D02*
X003748Y006209D01*
X003650Y006307D02*
X003543Y006307D01*
X003551Y006406D02*
X000350Y006406D01*
X000350Y006504D02*
X003453Y006504D01*
X003354Y006603D02*
X001362Y006603D01*
X001276Y006567D02*
X001509Y006663D01*
X001687Y006841D01*
X001783Y007074D01*
X001783Y007326D01*
X001687Y007559D01*
X001509Y007737D01*
X001276Y007833D01*
X001024Y007833D01*
X000791Y007737D01*
X000613Y007559D01*
X000517Y007326D01*
X000517Y007074D01*
X000613Y006841D01*
X000791Y006663D01*
X001024Y006567D01*
X001276Y006567D01*
X001546Y006701D02*
X002418Y006701D01*
X002418Y006800D02*
X001645Y006800D01*
X001710Y006898D02*
X002418Y006898D01*
X002418Y006997D02*
X001751Y006997D01*
X001783Y007095D02*
X002418Y007095D01*
X002418Y007194D02*
X001783Y007194D01*
X001783Y007292D02*
X002418Y007292D01*
X002418Y007391D02*
X001756Y007391D01*
X001716Y007489D02*
X004739Y007489D01*
X004739Y007391D02*
X003582Y007391D01*
X003582Y007292D02*
X004739Y007292D01*
X004739Y007194D02*
X004419Y007194D01*
X004777Y007588D02*
X001658Y007588D01*
X001559Y007686D02*
X008641Y007686D01*
X008691Y007737D02*
X008513Y007559D01*
X008417Y007326D01*
X008417Y007074D01*
X008513Y006841D01*
X008691Y006663D01*
X008924Y006567D01*
X009176Y006567D01*
X009409Y006663D01*
X009587Y006841D01*
X009683Y007074D01*
X009683Y007326D01*
X009587Y007559D01*
X009409Y007737D01*
X009176Y007833D01*
X008924Y007833D01*
X008691Y007737D01*
X008807Y007785D02*
X001393Y007785D01*
X000998Y007982D02*
X009302Y007982D01*
X009293Y007785D02*
X009690Y007785D01*
X009774Y007686D02*
X009459Y007686D01*
X009558Y007588D02*
X009845Y007588D01*
X009887Y007489D02*
X009616Y007489D01*
X009656Y007391D02*
X009919Y007391D01*
X009943Y007292D02*
X009683Y007292D01*
X009683Y007194D02*
X009950Y007194D01*
X009950Y007095D02*
X009683Y007095D01*
X009651Y006997D02*
X009950Y006997D01*
X009950Y006898D02*
X009610Y006898D01*
X009545Y006800D02*
X009950Y006800D01*
X009950Y006701D02*
X009446Y006701D01*
X009262Y006603D02*
X009950Y006603D01*
X009950Y006504D02*
X006927Y006504D01*
X006827Y006504D02*
X005707Y006504D01*
X005707Y006406D02*
X006353Y006406D01*
X006353Y006603D02*
X005707Y006603D01*
X005707Y006701D02*
X006353Y006701D01*
X006353Y006800D02*
X005707Y006800D01*
X005707Y006898D02*
X006353Y006898D01*
X006353Y006997D02*
X005707Y006997D01*
X005707Y007095D02*
X006353Y007095D01*
X006353Y007194D02*
X005707Y007194D01*
X005707Y007292D02*
X006353Y007292D01*
X006353Y007391D02*
X005707Y007391D01*
X005707Y007489D02*
X006353Y007489D01*
X006378Y007588D02*
X005669Y007588D01*
X004739Y006701D02*
X004408Y006701D01*
X004739Y006603D02*
X003835Y006603D01*
X003892Y006701D02*
X003737Y006701D01*
X003638Y006800D02*
X003863Y006800D01*
X003863Y006898D02*
X003582Y006898D01*
X003582Y006997D02*
X003863Y006997D01*
X003863Y007095D02*
X003582Y007095D01*
X003582Y007194D02*
X003881Y007194D01*
X003934Y006504D02*
X004739Y006504D01*
X004739Y006406D02*
X004032Y006406D01*
X004400Y006307D02*
X004739Y006307D01*
X004739Y006209D02*
X004710Y006209D01*
X004731Y005913D02*
X004739Y005913D01*
X004739Y005815D02*
X004427Y005815D01*
X004677Y005618D02*
X003622Y005618D01*
X003622Y005716D02*
X004739Y005716D01*
X004579Y005519D02*
X003621Y005519D01*
X003558Y005421D02*
X004480Y005421D01*
X004382Y005322D02*
X003668Y005322D01*
X003767Y005224D02*
X004283Y005224D01*
X004185Y005125D02*
X003865Y005125D01*
X003904Y005027D02*
X003996Y005027D01*
X003972Y004928D02*
X003928Y004928D01*
X003928Y004830D02*
X003972Y004830D01*
X003972Y004731D02*
X003928Y004731D01*
X003928Y004633D02*
X003972Y004633D01*
X003972Y004534D02*
X003928Y004534D01*
X003928Y004436D02*
X003972Y004436D01*
X003972Y004337D02*
X003928Y004337D01*
X003928Y004239D02*
X003972Y004239D01*
X003972Y004140D02*
X003928Y004140D01*
X003925Y004042D02*
X003975Y004042D01*
X002496Y005027D02*
X002317Y005027D01*
X002218Y004928D02*
X002472Y004928D01*
X002472Y004830D02*
X002120Y004830D01*
X002021Y004731D02*
X002472Y004731D01*
X002472Y004633D02*
X001923Y004633D01*
X001824Y004534D02*
X002472Y004534D01*
X002472Y004436D02*
X001265Y004436D01*
X001167Y004337D02*
X002472Y004337D01*
X001738Y004928D02*
X001302Y004928D01*
X001203Y005027D02*
X001836Y005027D01*
X002442Y005421D02*
X000350Y005421D01*
X000350Y005913D02*
X002378Y005913D01*
X002378Y006012D02*
X000350Y006012D01*
X000350Y006110D02*
X002378Y006110D01*
X002381Y006209D02*
X000350Y006209D01*
X000350Y006307D02*
X002457Y006307D01*
X002950Y006307D02*
X003050Y006307D01*
X003050Y006209D02*
X002950Y006209D01*
X002950Y006110D02*
X003050Y006110D01*
X003050Y006012D02*
X002950Y006012D01*
X002950Y005716D02*
X003050Y005716D01*
X003050Y005618D02*
X002950Y005618D01*
X002950Y005519D02*
X003050Y005519D01*
X003050Y005421D02*
X002950Y005421D01*
X001000Y004140D02*
X000900Y004140D01*
X000900Y004042D02*
X001000Y004042D01*
X001000Y003943D02*
X000900Y003943D01*
X000900Y003845D02*
X001000Y003845D01*
X000754Y004140D02*
X000350Y004140D01*
X000350Y004042D02*
X000655Y004042D01*
X000557Y003943D02*
X000350Y003943D01*
X000350Y003845D02*
X000500Y003845D01*
X000900Y003549D02*
X001000Y003549D01*
X001000Y003451D02*
X000900Y003451D01*
X000900Y003352D02*
X001000Y003352D01*
X001568Y001678D02*
X007381Y001678D01*
X008165Y001875D02*
X009950Y001875D01*
X009950Y001973D02*
X008263Y001973D01*
X008362Y002072D02*
X009950Y002072D01*
X009950Y002170D02*
X008370Y002170D01*
X008370Y002269D02*
X009950Y002269D01*
X009950Y002367D02*
X008370Y002367D01*
X008370Y002466D02*
X009950Y002466D01*
X009950Y002564D02*
X008370Y002564D01*
X008370Y002663D02*
X009950Y002663D01*
X009950Y002761D02*
X008370Y002761D01*
X008370Y002860D02*
X009950Y002860D01*
X009950Y002958D02*
X008370Y002958D01*
X008370Y003057D02*
X009950Y003057D01*
X009950Y003155D02*
X008370Y003155D01*
X008370Y003254D02*
X009160Y003254D01*
X009164Y003250D02*
X008900Y003514D01*
X008900Y003650D01*
X009300Y003650D01*
X009300Y003750D01*
X009300Y004150D01*
X009164Y004150D01*
X008900Y003886D01*
X008900Y003750D01*
X009300Y003750D01*
X009400Y003750D01*
X009400Y004150D01*
X009536Y004150D01*
X009800Y003886D01*
X009800Y003750D01*
X009400Y003750D01*
X009400Y003650D01*
X009800Y003650D01*
X009800Y003514D01*
X009536Y003250D01*
X009400Y003250D01*
X009400Y003650D01*
X009300Y003650D01*
X009300Y003250D01*
X009164Y003250D01*
X009300Y003254D02*
X009400Y003254D01*
X009540Y003254D02*
X009950Y003254D01*
X009950Y003352D02*
X009638Y003352D01*
X009737Y003451D02*
X009950Y003451D01*
X009950Y003549D02*
X009800Y003549D01*
X009800Y003648D02*
X009950Y003648D01*
X009950Y003746D02*
X009400Y003746D01*
X009400Y003648D02*
X009300Y003648D01*
X009300Y003746D02*
X008370Y003746D01*
X008370Y003648D02*
X008900Y003648D01*
X008900Y003549D02*
X008370Y003549D01*
X008370Y003451D02*
X008963Y003451D01*
X009062Y003352D02*
X008370Y003352D01*
X008030Y003648D02*
X007901Y003648D01*
X007957Y003746D02*
X008030Y003746D01*
X008317Y003943D02*
X008957Y003943D01*
X008900Y003845D02*
X008370Y003845D01*
X008219Y004042D02*
X009055Y004042D01*
X009154Y004140D02*
X007957Y004140D01*
X007946Y004239D02*
X009950Y004239D01*
X009950Y004337D02*
X009567Y004337D01*
X009665Y004436D02*
X009950Y004436D01*
X009950Y004534D02*
X009760Y004534D01*
X009760Y004633D02*
X009950Y004633D01*
X009950Y004731D02*
X009760Y004731D01*
X009760Y004830D02*
X009950Y004830D01*
X009950Y004928D02*
X009702Y004928D01*
X009603Y005027D02*
X009950Y005027D01*
X009950Y005125D02*
X007461Y005125D01*
X007379Y005224D02*
X009950Y005224D01*
X009950Y005322D02*
X007303Y005322D01*
X007380Y005421D02*
X009950Y005421D01*
X009950Y005519D02*
X007401Y005519D01*
X007401Y005618D02*
X009950Y005618D01*
X009950Y005716D02*
X007401Y005716D01*
X007401Y005815D02*
X009950Y005815D01*
X009950Y005913D02*
X007401Y005913D01*
X007401Y006012D02*
X009950Y006012D01*
X009950Y006110D02*
X007401Y006110D01*
X007401Y006209D02*
X009950Y006209D01*
X009950Y006307D02*
X007401Y006307D01*
X007401Y006406D02*
X009950Y006406D01*
X008838Y006603D02*
X007401Y006603D01*
X007401Y006701D02*
X008654Y006701D01*
X008555Y006800D02*
X007401Y006800D01*
X007401Y006898D02*
X008490Y006898D01*
X008449Y006997D02*
X007401Y006997D01*
X007401Y007095D02*
X008417Y007095D01*
X008417Y007194D02*
X007401Y007194D01*
X007401Y007292D02*
X008417Y007292D01*
X008444Y007391D02*
X007401Y007391D01*
X007401Y007489D02*
X008484Y007489D01*
X008542Y007588D02*
X007376Y007588D01*
X006927Y007588D02*
X006827Y007588D01*
X006827Y007489D02*
X006927Y007489D01*
X006927Y007391D02*
X006827Y007391D01*
X006827Y007292D02*
X006927Y007292D01*
X006927Y007194D02*
X006827Y007194D01*
X006827Y007095D02*
X006927Y007095D01*
X006927Y006997D02*
X006827Y006997D01*
X006827Y006898D02*
X006927Y006898D01*
X006927Y006800D02*
X006827Y006800D01*
X006827Y006701D02*
X006927Y006701D01*
X006927Y006603D02*
X006827Y006603D01*
X007544Y005027D02*
X009097Y005027D01*
X008998Y004928D02*
X007926Y004928D01*
X007957Y004436D02*
X009035Y004436D01*
X009133Y004337D02*
X007921Y004337D01*
X009300Y004140D02*
X009400Y004140D01*
X009400Y004042D02*
X009300Y004042D01*
X009300Y003943D02*
X009400Y003943D01*
X009400Y003845D02*
X009300Y003845D01*
X009546Y004140D02*
X009950Y004140D01*
X009950Y004042D02*
X009645Y004042D01*
X009743Y003943D02*
X009950Y003943D01*
X009950Y003845D02*
X009800Y003845D01*
X009400Y003549D02*
X009300Y003549D01*
X009300Y003451D02*
X009400Y003451D01*
X009400Y003352D02*
X009300Y003352D01*
X009554Y007883D02*
X000746Y007883D01*
X000610Y007785D02*
X000907Y007785D01*
X000741Y007686D02*
X000526Y007686D01*
X000455Y007588D02*
X000642Y007588D01*
X000584Y007489D02*
X000413Y007489D01*
X000381Y007391D02*
X000544Y007391D01*
X000517Y007292D02*
X000357Y007292D01*
X000350Y007194D02*
X000517Y007194D01*
X000517Y007095D02*
X000350Y007095D01*
X000350Y006997D02*
X000549Y006997D01*
X000590Y006898D02*
X000350Y006898D01*
X000350Y006800D02*
X000655Y006800D01*
X000754Y006701D02*
X000350Y006701D01*
X000350Y006603D02*
X000938Y006603D01*
D20*
X004550Y006050D03*
X005950Y006050D03*
M02*
